<?xml version="1.0" encoding="utf-8"?>
<!-- Generator: Adobe Illustrator 19.1.0, SVG Export Plug-In . SVG Version: 6.00 Build 0)  -->
<!DOCTYPE svg PUBLIC "-//W3C//DTD SVG 1.1//EN" "http://www.w3.org/Graphics/SVG/1.1/DTD/svg11.dtd">
<svg version="1.1" id="Layer_1" xmlns="http://www.w3.org/2000/svg" xmlns:xlink="http://www.w3.org/1999/xlink" x="0px" y="0px"
	 viewBox="0 0 30.8 14.6" style="enable-background:new 0 0 30.8 14.6;" xml:space="preserve">
<style type="text/css">
	.st0{fill:#231F20;}
	.st1{fill:#FFFFFF;}
</style>
<rect class="st0" width="30.8" height="14.6"/>
<path class="st1" d="M29.8,13.7H1.1V1.1h28.7V13.7z M1.6,13.1h27.7V1.5H1.6V13.1z"/>
<path class="st1" d="M7.2,5.7C7.1,6.4,6.5,6.8,5.9,6.8s-1.1-0.5-1-1.1s0.7-1.1,1.3-1.1C6.8,4.6,7.3,5.1,7.2,5.7z M5.4,5.7
	C5.3,6.1,5.6,6.3,5.9,6.3S6.5,6,6.6,5.7c0-0.3-0.2-0.5-0.5-0.5S5.5,5.4,5.4,5.7z"/>
<path class="st1" d="M8.1,5.2L8,5.5h0.6L8.5,6H7.9L7.8,6.8H7.3l0.3-2.1h1.2L8.7,5.2H8.1z"/>
<path class="st1" d="M9.5,5.2L9.4,5.5H10L9.9,6H9.3L9.2,6.8H8.7L9,4.7h1.2l-0.1,0.5H9.5z"/>
<path class="st1" d="M12,6.8h-0.5l0.3-1.6h-0.4l0.1-0.5h1.4l-0.1,0.5h-0.4L12,6.8z"/>
<path class="st1" d="M14.3,5.5l0.1-0.8h0.5l-0.3,2.1h-0.5l0.1-0.9h-0.8l-0.1,0.9h-0.5l0.3-2.1h0.5l-0.1,0.8H14.3z"/>
<path class="st1" d="M15.7,5.2l-0.1,0.3h0.6L16.1,6h-0.6l-0.1,0.4H16l-0.1,0.5h-1.2L15,4.8h1.2l-0.1,0.5h-0.4V5.2z"/>
<path class="st1" d="M17.6,4.7h0.8c0.6,0,1,0.5,0.9,1c-0.1,0.6-0.6,1-1.2,1h-0.8L17.6,4.7z M17.9,6.3L17.9,6.3
	c0.4,0,0.7-0.2,0.8-0.6c0.1-0.4-0.2-0.6-0.5-0.6h-0.1L17.9,6.3z"/>
<path class="st1" d="M21.8,5.7c-0.1,0.7-0.7,1.1-1.3,1.1s-1.1-0.5-1-1.1s0.7-1.1,1.3-1.1C21.4,4.6,21.9,5.1,21.8,5.7z M20.1,5.7
	c-0.1,0.4,0.2,0.6,0.5,0.6s0.6-0.3,0.7-0.6c0-0.3-0.2-0.5-0.5-0.5S20.1,5.4,20.1,5.7z"/>
<path class="st1" d="M22.4,4.7h0.5l0.2,1.1l0.6-1.1h0.5v2.1h-0.5V5.6l0,0L23,6.8h-0.2l-0.3-1.2l0,0l-0.4,1.2h-0.5L22.4,4.7z"/>
<path class="st1" d="M25.3,5.2l-0.1,0.3h0.6L25.7,6h-0.6L25,6.4h0.6l-0.1,0.5h-1.2l0.3-2.1h1.2l-0.1,0.5h-0.4V5.2z"/>
<path class="st1" d="M6.7,8.3v0.4l0,0c0-0.1,0-0.1,0-0.1L6.6,8.5c0,0-0.1,0-0.2,0H6.2v1.2c0,0.1,0,0.2,0,0.2h0.1h0.1l0,0H5.7l0,0
	h0.1c0.1,0,0.1,0,0.1-0.1c0,0,0-0.1,0-0.2V8.4H5.7c-0.1,0-0.1,0-0.2,0c0,0-0.1,0-0.1,0.1s0,0.1-0.1,0.2l0,0V8.3L6.7,8.3L6.7,8.3z"/>
<path class="st1" d="M7.4,9h0.7V8.6c0-0.1,0-0.1,0-0.2l0,0H8H7.9l0,0h0.7l0,0H8.5H8.4c0,0,0,0,0,0.1s0,0.1,0,0.2v1
	c0,0.1,0,0.1,0,0.2l0,0h0.1h0.1l0,0H7.9l0,0H8c0.1,0,0.1,0,0.1-0.1c0,0,0-0.1,0-0.2V9.1L7.4,9v0.6c0,0.1,0,0.1,0,0.2l0,0h0.1h0.1
	l0,0H6.9l0,0H7c0.1,0,0.1,0,0.1-0.1c0,0,0-0.1,0-0.2v-1c0-0.1,0-0.1,0-0.2l0,0H7H6.9l0,0h0.7l0,0H7.5H7.4c0,0,0,0,0,0.1s0,0.1,0,0.2
	V9z"/>
<path class="st1" d="M9.5,9.8L9.5,9.8H8.8l0,0h0.1C9,9.8,9,9.8,9,9.7c0,0,0-0.1,0-0.2v-1c0-0.1,0-0.1,0-0.2l0,0H8.9H8.8l0,0h0.7l0,0
	H9.4c-0.1,0-0.1,0-0.1,0.1c0,0,0,0.1,0,0.2v1c0,0.1,0,0.1,0,0.2l0,0C9.4,9.8,9.5,9.8,9.5,9.8L9.5,9.8z"/>
<path class="st1" d="M9.8,8.3h0.4l0.9,1.2v-1c0-0.1,0-0.2,0-0.2H11h-0.1l0,0h0.5l0,0h-0.1c-0.1,0-0.1,0-0.1,0.1c0,0,0,0.1,0,0.2v1.3
	l0,0l-1-1.2v0.9c0,0.1,0,0.2,0,0.2h0.1h0.1l0,0H9.9l0,0H10c0.1,0,0.1,0,0.1-0.1c0,0,0-0.1,0-0.2v-1c0-0.1-0.1-0.1-0.1-0.1H9.9
	C9.9,8.3,9.8,8.3,9.8,8.3L9.8,8.3z"/>
<path class="st1" d="M12.3,9l0.6,0.6c0.1,0.1,0.2,0.2,0.2,0.2c0.1,0,0.1,0.1,0.2,0.1l0,0h-0.7l0,0h0.1l0,0l0,0c0,0,0,0-0.1-0.1
	l-0.5-0.5v0.5c0,0.1,0,0.1,0,0.2l0,0h0.1h0.1l0,0h-0.7l0,0h0.1c0.1,0,0.1,0,0.1-0.1c0,0,0-0.1,0-0.2v-1c0-0.1,0-0.1,0-0.2l0,0h-0.1
	h-0.1l0,0h0.7l0,0h-0.1h-0.1c0,0,0,0,0,0.1c0,0,0,0.1,0,0.2v0.5C12.1,9,12.2,9,12.3,9c0.2-0.3,0.3-0.4,0.3-0.5V8.4l0,0
	c0,0,0,0-0.1,0l0,0l0,0h0.6l0,0H13h-0.1l-0.1,0.1c0,0-0.1,0.1-0.2,0.2L12.3,9z"/>
<path class="st1" d="M14.2,9.8L14.2,9.8h-0.7l0,0h0.1c0.1,0,0.1,0,0.1-0.1c0,0,0-0.1,0-0.2v-1c0-0.1,0-0.1,0-0.2l0,0h-0.1h-0.1l0,0
	h0.7l0,0h-0.1c-0.1,0-0.1,0-0.1,0.1c0,0,0,0.1,0,0.2v1c0,0.1,0,0.1,0,0.2l0,0C14.1,9.8,14.1,9.8,14.2,9.8L14.2,9.8z"/>
<path class="st1" d="M14.5,8.3h0.4l0.9,1.2v-1c0-0.1,0-0.2,0-0.2h-0.1h-0.1l0,0h0.5l0,0H16c-0.1,0-0.1,0-0.1,0.1c0,0,0,0.1,0,0.2
	v1.3l0,0l-1-1.2v0.9c0,0.1,0,0.2,0,0.2H15h0.1l0,0h-0.5l0,0h0.1c0.1,0,0.1,0,0.1-0.1c0,0,0-0.1,0-0.2v-1c0-0.1-0.1-0.1-0.1-0.1h-0.1
	C14.5,8.3,14.5,8.3,14.5,8.3L14.5,8.3z"/>
<path class="st1" d="M17.7,8.2v0.5l0,0c0-0.1-0.1-0.2-0.2-0.3c-0.1-0.1-0.2-0.1-0.4-0.1s-0.3,0.1-0.4,0.2c-0.1,0.1-0.1,0.3-0.1,0.5
	c0,0.1,0,0.3,0.1,0.4c0.1,0.1,0.1,0.2,0.2,0.3s0.2,0.1,0.3,0.1s0.1,0,0.2,0c0.1,0,0.1,0,0.2-0.1V9.3c0-0.1,0-0.1,0-0.2
	c0,0,0,0-0.1-0.1h-0.1l0,0H18l0,0l0,0c-0.1,0-0.1,0-0.1,0.1c0,0,0,0.1,0,0.2v0.5c-0.1,0-0.2,0.1-0.3,0.1s-0.2,0-0.3,0
	c-0.3,0-0.5-0.1-0.7-0.3c-0.1-0.1-0.2-0.3-0.2-0.5c0-0.1,0-0.3,0.1-0.4c0.1-0.1,0.2-0.3,0.3-0.3c0.1-0.1,0.2-0.1,0.4-0.1
	c0.1,0,0.1,0,0.2,0c0,0,0.1,0,0.2,0.1C17.6,8.3,17.6,8.3,17.7,8.2C17.7,8.3,17.7,8.3,17.7,8.2C17.7,8.3,17.7,8.3,17.7,8.2L17.7,8.2z
	"/>
<path class="st1" d="M20.4,8.2v0.5l0,0c0-0.2-0.1-0.3-0.2-0.3c-0.1-0.1-0.2-0.1-0.3-0.1s-0.2,0-0.3,0.1s-0.1,0.1-0.2,0.2
	c0,0.1-0.1,0.3-0.1,0.4c0,0.1,0,0.3,0.1,0.4c0,0.1,0.1,0.2,0.2,0.2c0.1,0.1,0.2,0.1,0.3,0.1s0.2,0,0.3-0.1s0.2-0.1,0.3-0.3l0,0
	c-0.1,0.1-0.2,0.2-0.3,0.3S20,9.7,19.8,9.7c-0.3,0-0.5-0.1-0.6-0.3C19.1,9.3,19,9.1,19,8.9s0-0.3,0.1-0.4c0.1-0.1,0.2-0.2,0.3-0.3
	s0.3-0.1,0.4-0.1c0.1,0,0.2,0,0.3,0.1h0.1C20.3,8.4,20.3,8.3,20.4,8.2C20.3,8.3,20.3,8.3,20.4,8.2L20.4,8.2z"/>
<path class="st1" d="M21.7,9.3h-0.6L21,9.5c0,0.1,0,0.1,0,0.1s0,0,0,0.1s0.1,0,0.1,0l0,0h-0.5l0,0c0.1,0,0.1,0,0.1,0
	s0.1-0.1,0.1-0.2l0.5-1.3l0,0l0.5,1.3c0,0.1,0.1,0.2,0.1,0.2s0.1,0,0.1,0.1l0,0h-0.6l0,0c0.1,0,0.1,0,0.1,0s0,0,0-0.1
	c0,0,0-0.1,0-0.2L21.7,9.3z M21.7,9.2l-0.3-0.6l-0.3,0.6H21.7z"/>
<path class="st1" d="M23,9.1v0.4c0,0.1,0,0.2,0,0.2l0.1,0.1h0.1l0,0h-0.7l0,0h0.1c0.1,0,0.1,0,0.1-0.1c0,0,0-0.1,0-0.2v-1
	c0-0.1,0-0.2,0-0.2l-0.1-0.1h-0.1l0,0h0.6c0.1,0,0.2,0,0.3,0s0.1,0.1,0.2,0.1c0.1,0.1,0.1,0.1,0.1,0.2c0,0.1,0,0.2-0.1,0.3
	s-0.2,0.1-0.4,0.1h-0.1C23.1,8.9,23.1,9.1,23,9.1z M23,9L23,9h0.2c0.1,0,0.1,0,0.2-0.1c0.1-0.1,0.1-0.1,0.1-0.2c0-0.1,0-0.1,0-0.2
	c0-0.1-0.1-0.1-0.1-0.1c-0.1,0-0.1,0-0.2,0h-0.1L23,9L23,9z"/>
<path class="st1" d="M25,8.2v0.5l0,0c0-0.1,0-0.2-0.1-0.2c0-0.1-0.1-0.1-0.2-0.1c-0.1,0-0.1-0.1-0.2-0.1c-0.1,0-0.1,0-0.2,0.1
	c-0.1,0-0.1,0.1-0.1,0.2v0.1c0,0.1,0.2,0.1,0.3,0.2C24.6,9,24.7,9,24.8,9.1s0.1,0.1,0.1,0.1c0,0.1,0,0.1,0,0.2c0,0.1,0,0.2-0.1,0.3
	s-0.2,0.1-0.3,0.1h-0.1h-0.1h-0.1l0,0c0,0,0,0,0,0.1l0,0V9.4l0,0c0,0.1,0,0.2,0.1,0.2c0,0.1,0.1,0.1,0.2,0.1c0.1,0,0.1,0.1,0.2,0.1
	c0.1,0,0.2,0,0.2-0.1C25,9.7,25,9.6,25,9.5V9.4l-0.1-0.1c0,0-0.1-0.1-0.2-0.1S24.5,9.1,24.4,9c-0.1,0-0.1-0.1-0.1-0.1
	c0-0.1,0-0.1,0-0.2c0-0.1,0-0.2,0.1-0.3s0.2-0.1,0.3-0.1s0.2,0,0.3,0.1h0.1C24.9,8.3,25,8.3,25,8.2C25,8.3,25,8.3,25,8.2L25,8.2z"/>
<g>
</g>
<g>
</g>
<g>
</g>
<g>
</g>
<g>
</g>
<g>
</g>
</svg>
