<?xml version="1.0" encoding="utf-8"?>
<!-- Generator: Adobe Illustrator 18.1.1, SVG Export Plug-In . SVG Version: 6.00 Build 0)  -->
<!DOCTYPE svg PUBLIC "-//W3C//DTD SVG 1.1//EN" "http://www.w3.org/Graphics/SVG/1.1/DTD/svg11.dtd">
<svg version="1.1" id="Layer_1" xmlns="http://www.w3.org/2000/svg" xmlns:xlink="http://www.w3.org/1999/xlink" x="0px" y="0px"
	 viewBox="0 0 246.8 163.4" style="enable-background:new 0 0 246.8 163.4;" xml:space="preserve">
<style type="text/css">
	.st0{fill:#FFFFFF;}
	.st1{fill:#FFFFFF;stroke:#231F20;stroke-width:1.7879;stroke-miterlimit:10;}
	.st2{fill:none;stroke:#231F20;stroke-width:1.7879;stroke-miterlimit:10;}
	.st3{fill:#FFFFFF;stroke:#231F20;stroke-width:1.7879;stroke-linecap:round;}
	.st4{fill:none;stroke:#010101;stroke-width:0.447;stroke-miterlimit:10;}
	.st5{fill:none;stroke:#231F20;stroke-width:0.8939;stroke-linecap:round;stroke-miterlimit:10;}
	.st6{fill:none;stroke:#231F20;stroke-width:0.8939;stroke-linecap:round;stroke-miterlimit:10;stroke-dasharray:3.5487,1.7744;}
	.st7{fill:none;stroke:#231F20;stroke-width:0.8939;stroke-linecap:round;stroke-miterlimit:10;stroke-dasharray:3.5757,1.7879;}
</style>
<g id="tag_1_">
	<g>
		<g>
			<polygon points="115.5,100.5 77.2,98.3 78.7,83.3 117.6,84.6 			"/>
		</g>
		<g>
			<g>
				<path class="st0" d="M114.3,99.4l-35.6-2l1.3-13l36.1,1.3L114.3,99.4z M79.4,96.8l34.4,1.9l1.7-12.5l-34.9-1.3L79.4,96.8z"/>
			</g>
			<g>
				<path class="st0" d="M87.2,89.5c-0.2,0.7-1,1.2-1.8,1.1c-0.8,0-1.3-0.5-1.1-1.2c0.2-0.6,1-1.1,1.8-1
					C86.8,88.4,87.4,88.8,87.2,89.5z M85,89.4c-0.1,0.4,0.1,0.7,0.5,0.7c0.4,0,0.8-0.2,0.9-0.6c0.1-0.3-0.2-0.6-0.6-0.6
					C85.5,88.9,85.1,89.1,85,89.4z"/>
			</g>
			<g>
				<path class="st0" d="M88.4,89l-0.1,0.4l0.7,0l-0.1,0.5l-0.7,0l-0.3,0.8l-0.7,0l0.7-2.1l1.5,0.1L89.2,89L88.4,89z"/>
			</g>
			<g>
				<path class="st0" d="M90.2,89.1l-0.1,0.4l0.7,0l-0.1,0.5l-0.7,0l-0.3,0.8l-0.7,0l0.7-2.2l1.5,0.1L91,89.1L90.2,89.1z"/>
			</g>
			<g>
				<path class="st0" d="M93.1,90.9l-0.7,0l0.5-1.7l-0.6,0l0.1-0.5l1.8,0.1l-0.1,0.5l-0.6,0L93.1,90.9z"/>
			</g>
			<g>
				<path class="st0" d="M96.1,89.7l0.3-0.8l0.7,0L96.3,91l-0.7,0l0.3-0.9l-1,0L94.7,91l-0.7,0l0.7-2.2l0.7,0l-0.3,0.8L96.1,89.7z"
					/>
			</g>
			<g>
				<path class="st0" d="M97.9,89.4l-0.1,0.4l0.8,0l-0.1,0.5l-0.8,0l-0.1,0.4l0.8,0l-0.1,0.5L96.7,91l0.7-2.2l1.5,0.1l-0.1,0.5
					L97.9,89.4z"/>
			</g>
			<g>
				<path class="st0" d="M100.4,89l1,0c0.7,0,1.2,0.5,1,1.2c-0.2,0.6-0.9,1.1-1.7,1l-1,0L100.4,89z M100.6,90.7l0.2,0
					c0.4,0,0.8-0.2,0.9-0.6c0.1-0.4-0.1-0.6-0.6-0.6l-0.2,0L100.6,90.7z"/>
			</g>
			<g>
				<path class="st0" d="M105.5,90.3c-0.2,0.7-1,1.2-1.8,1.1c-0.8,0-1.3-0.6-1.1-1.3c0.2-0.7,1-1.1,1.8-1.1
					C105.2,89.1,105.7,89.6,105.5,90.3z M103.3,90.2c-0.1,0.4,0.1,0.7,0.5,0.7c0.4,0,0.8-0.2,0.9-0.6c0.1-0.3-0.1-0.6-0.6-0.6
					C103.9,89.6,103.4,89.9,103.3,90.2z"/>
			</g>
			<g>
				<path class="st0" d="M106.4,89.3l0.7,0l0.2,1.2l0.9-1.2l0.7,0l-0.3,2.2l-0.7,0l0.2-1.3l0,0l-1,1.2l-0.3,0l-0.2-1.3l0,0l-0.6,1.3
					l-0.7,0L106.4,89.3z"/>
			</g>
			<g>
				<path class="st0" d="M110,89.9l-0.1,0.4l0.8,0l-0.2,0.5l-0.8,0l-0.1,0.4l0.8,0l-0.2,0.5l-1.5-0.1l0.7-2.2l1.5,0.1l-0.2,0.5
					L110,89.9z"/>
			</g>
			<g>
				<path class="st0" d="M86.2,92.1l0,0.4l-0.1,0c0-0.1,0-0.1,0-0.1c0,0-0.1-0.1-0.1-0.1c0,0-0.1,0-0.2,0l-0.3,0l-0.1,1.2
					c0,0.1,0,0.2,0,0.2c0,0,0.1,0.1,0.2,0.1l0.1,0l0,0l-0.8,0l0,0l0.1,0c0.1,0,0.1,0,0.2-0.1c0,0,0-0.1,0-0.2l0.1-1.2l-0.2,0
					c-0.1,0-0.2,0-0.2,0c-0.1,0-0.1,0-0.1,0.1c0,0-0.1,0.1-0.1,0.2l-0.1,0l0.1-0.4L86.2,92.1z"/>
				<path class="st0" d="M87.1,92.9l0.9,0l0.1-0.5c0-0.1,0-0.1,0-0.2c0,0,0,0-0.1-0.1c0,0-0.1,0-0.1,0l-0.1,0l0,0l0.8,0l0,0l-0.1,0
					c0,0-0.1,0-0.1,0c0,0-0.1,0-0.1,0.1c0,0,0,0.1,0,0.2l-0.1,1c0,0.1,0,0.1,0,0.2c0,0,0,0,0.1,0.1c0,0,0.1,0,0.1,0l0.1,0l0,0
					l-0.8,0l0,0l0.1,0c0.1,0,0.1,0,0.2,0c0,0,0-0.1,0.1-0.2l0.1-0.5L87.1,92.9L87,93.5c0,0.1,0,0.1,0,0.2c0,0,0,0,0.1,0.1
					c0,0,0.1,0,0.1,0l0.1,0l0,0l-0.8,0l0,0l0.1,0c0.1,0,0.1,0,0.2,0c0,0,0-0.1,0.1-0.2l0.1-1c0-0.1,0-0.1,0-0.2c0,0,0,0-0.1-0.1
					c0,0-0.1,0-0.1,0l-0.1,0l0,0l0.8,0l0,0l-0.1,0c0,0-0.1,0-0.1,0c0,0-0.1,0-0.1,0.1c0,0,0,0.1,0,0.2L87.1,92.9z"/>
				<path class="st0" d="M89.7,93.9L89.7,93.9l-0.8,0l0,0l0.1,0c0.1,0,0.1,0,0.2,0c0,0,0-0.1,0.1-0.2l0.1-1c0-0.1,0-0.1,0-0.2
					c0,0,0,0-0.1-0.1c0,0-0.1,0-0.1,0l-0.1,0l0,0l0.8,0l0,0l-0.1,0c-0.1,0-0.1,0-0.2,0.1c0,0,0,0.1-0.1,0.2l-0.1,1
					c0,0.1,0,0.1,0,0.2c0,0,0,0,0.1,0.1C89.5,93.9,89.6,93.9,89.7,93.9L89.7,93.9z"/>
				<path class="st0" d="M90.1,92.3l0.5,0l1,1.3l0.1-0.9c0-0.1,0-0.2,0-0.2c0,0-0.1-0.1-0.2-0.1l-0.1,0l0,0l0.7,0l0,0l-0.1,0
					c-0.1,0-0.1,0-0.2,0.1c0,0,0,0.1-0.1,0.2L91.8,94l-0.1,0l-1.1-1.4l-0.1,1c0,0.1,0,0.2,0,0.2c0,0,0.1,0.1,0.2,0.1l0.1,0l0,0
					l-0.7,0l0,0l0.1,0c0.1,0,0.1,0,0.2-0.1c0,0,0-0.1,0.1-0.2l0.1-1.1c0-0.1-0.1-0.1-0.1-0.1c0,0-0.1,0-0.1-0.1
					C90.2,92.4,90.2,92.4,90.1,92.3L90.1,92.3z"/>
				<path class="st0" d="M93.2,93.2l0.6,0.6c0.1,0.1,0.2,0.2,0.3,0.2c0.1,0,0.2,0.1,0.2,0.1l0,0l-0.9,0l0,0c0.1,0,0.1,0,0.1,0
					c0,0,0,0,0-0.1s0,0,0-0.1s0,0-0.1-0.1l-0.6-0.6l-0.1,0.5c0,0.1,0,0.1,0,0.2c0,0,0,0,0.1,0.1c0,0,0.1,0,0.1,0l0.1,0l0,0l-0.8,0
					l0,0l0.1,0c0.1,0,0.1,0,0.2,0c0,0,0-0.1,0.1-0.2l0.1-1c0-0.1,0-0.1,0-0.2c0,0,0,0-0.1-0.1c0,0-0.1,0-0.1,0l-0.1,0l0,0l0.8,0l0,0
					l-0.1,0c0,0-0.1,0-0.1,0c0,0-0.1,0-0.1,0.1c0,0,0,0.1,0,0.2l-0.1,0.5C93,93.2,93,93.2,93.2,93.2c0.2-0.3,0.4-0.4,0.5-0.5
					c0,0,0-0.1,0-0.1c0,0,0,0,0,0c0,0-0.1,0-0.1,0l0,0l0,0l0.7,0l0,0c0,0-0.1,0-0.1,0c0,0-0.1,0-0.1,0c-0.1,0-0.1,0.1-0.2,0.1
					c0,0-0.1,0.1-0.3,0.2L93.2,93.2z"/>
				<path class="st0" d="M95.5,94.2L95.5,94.2l-0.8,0l0,0l0.1,0c0.1,0,0.1,0,0.2,0c0,0,0-0.1,0.1-0.2l0.1-1c0-0.1,0-0.1,0-0.2
					c0,0,0,0-0.1-0.1c0,0-0.1,0-0.1,0l-0.1,0l0,0l0.8,0l0,0l-0.1,0c-0.1,0-0.1,0-0.2,0.1c0,0,0,0.1-0.1,0.2l-0.1,1
					c0,0.1,0,0.1,0,0.2c0,0,0,0,0.1,0.1C95.4,94.1,95.4,94.2,95.5,94.2L95.5,94.2z"/>
				<path class="st0" d="M96,92.6l0.5,0l1,1.3l0.1-0.9c0-0.1,0-0.2,0-0.2c0,0-0.1-0.1-0.2-0.1l-0.1,0l0,0l0.7,0l0,0l-0.1,0
					c-0.1,0-0.1,0-0.2,0.1c0,0,0,0.1-0.1,0.2l-0.2,1.4l-0.1,0L96.5,93l-0.1,1c0,0.1,0,0.2,0,0.2c0,0,0.1,0.1,0.2,0.1l0.1,0l0,0
					l-0.7,0l0,0l0.1,0c0.1,0,0.1,0,0.2-0.1c0,0,0-0.1,0.1-0.2l0.1-1.1c0-0.1-0.1-0.1-0.1-0.1c0,0-0.1,0-0.1-0.1
					C96.1,92.7,96,92.6,96,92.6L96,92.6z"/>
				<path class="st0" d="M100.1,92.8l0,0.5l0,0c0-0.1-0.1-0.2-0.2-0.3c-0.1-0.1-0.2-0.2-0.4-0.2c-0.2,0-0.4,0.1-0.6,0.2
					c-0.1,0.1-0.2,0.3-0.2,0.5c0,0.2,0,0.3,0.1,0.4c0.1,0.1,0.1,0.2,0.2,0.3c0.1,0.1,0.2,0.1,0.3,0.1c0.1,0,0.1,0,0.2,0
					s0.1,0,0.2-0.1l0.1-0.5c0-0.1,0-0.1,0-0.2c0,0,0,0-0.1-0.1c0,0-0.1,0-0.2,0l0,0l0.7,0l0,0l0,0c-0.1,0-0.1,0-0.2,0.1
					c0,0,0,0.1,0,0.2l-0.1,0.5c-0.1,0-0.2,0.1-0.3,0.1c-0.1,0-0.2,0-0.4,0c-0.4,0-0.6-0.1-0.8-0.3c-0.1-0.2-0.2-0.3-0.2-0.5
					c0-0.1,0.1-0.3,0.2-0.4c0.1-0.2,0.3-0.3,0.4-0.3c0.1-0.1,0.3-0.1,0.5-0.1c0.1,0,0.1,0,0.2,0c0.1,0,0.1,0,0.2,0.1
					c0.1,0,0.1,0,0.1,0C100,92.9,100,92.8,100.1,92.8C100,92.8,100,92.8,100.1,92.8L100.1,92.8z"/>
				<path class="st0" d="M103.4,92.9l0,0.6l0,0c0-0.2-0.1-0.3-0.2-0.4c-0.1-0.1-0.2-0.1-0.4-0.1c-0.1,0-0.2,0-0.4,0.1
					c-0.1,0.1-0.2,0.1-0.3,0.3c-0.1,0.1-0.1,0.3-0.1,0.4c0,0.1,0,0.3,0,0.4c0,0.1,0.1,0.2,0.2,0.3c0.1,0.1,0.2,0.1,0.4,0.1
					c0.1,0,0.2,0,0.3-0.1c0.1,0,0.2-0.1,0.3-0.3l0,0c-0.1,0.1-0.2,0.2-0.4,0.3c-0.1,0.1-0.3,0.1-0.5,0.1c-0.3,0-0.6-0.1-0.7-0.3
					c-0.1-0.2-0.2-0.3-0.1-0.5c0-0.2,0.1-0.3,0.2-0.4c0.1-0.1,0.2-0.2,0.4-0.3c0.2-0.1,0.3-0.1,0.5-0.1c0.1,0,0.3,0,0.4,0.1
					c0,0,0.1,0,0.1,0c0,0,0,0,0.1,0C103.3,93,103.3,93,103.4,92.9L103.4,92.9z"/>
				<path class="st0" d="M104.9,94.1l-0.7,0l-0.2,0.3c0,0.1-0.1,0.1-0.1,0.1c0,0,0,0,0,0.1c0,0,0.1,0,0.2,0l0,0l-0.6,0l0,0
					c0.1,0,0.1,0,0.2,0c0.1,0,0.1-0.1,0.2-0.2l0.8-1.3l0,0l0.5,1.4c0,0.1,0.1,0.2,0.1,0.2c0,0,0.1,0.1,0.2,0.1l0,0l-0.8,0l0,0
					c0.1,0,0.1,0,0.2,0c0,0,0,0,0-0.1c0,0,0-0.1,0-0.2L104.9,94.1z M104.9,94l-0.2-0.7l-0.4,0.6L104.9,94z"/>
				<path class="st0" d="M106.6,94l-0.1,0.5c0,0.1,0,0.2,0,0.2c0,0,0.1,0.1,0.2,0.1l0.1,0l0,0l-0.8,0l0,0l0.1,0c0.1,0,0.1,0,0.2-0.1
					c0,0,0-0.1,0.1-0.2l0.1-1.1c0-0.1,0-0.2,0-0.2c0,0-0.1-0.1-0.2-0.1l-0.1,0l0,0l0.7,0c0.2,0,0.3,0,0.4,0.1c0.1,0,0.2,0.1,0.2,0.2
					c0.1,0.1,0.1,0.2,0.1,0.3c0,0.1-0.1,0.2-0.2,0.3c-0.1,0.1-0.3,0.1-0.5,0.1c0,0-0.1,0-0.1,0C106.7,94,106.6,94,106.6,94z
					 M106.6,93.9c0,0,0.1,0,0.1,0c0,0,0.1,0,0.1,0c0.1,0,0.2,0,0.3-0.1c0.1-0.1,0.1-0.1,0.1-0.2c0-0.1,0-0.1,0-0.2
					c0-0.1-0.1-0.1-0.1-0.1c-0.1,0-0.1-0.1-0.2-0.1c0,0-0.1,0-0.2,0L106.6,93.9z"/>
				<path class="st0" d="M109.2,93.2l-0.1,0.6l-0.1,0c0-0.1,0-0.2-0.1-0.3c0-0.1-0.1-0.1-0.2-0.2c-0.1,0-0.2-0.1-0.2-0.1
					c-0.1,0-0.2,0-0.3,0.1c-0.1,0-0.1,0.1-0.1,0.2c0,0.1,0,0.1,0,0.1c0.1,0.1,0.2,0.2,0.4,0.3c0.2,0.1,0.3,0.2,0.3,0.2
					c0.1,0,0.1,0.1,0.1,0.2c0,0.1,0,0.1,0,0.2c0,0.1-0.1,0.2-0.2,0.3c-0.1,0.1-0.3,0.1-0.5,0.1c-0.1,0-0.1,0-0.2,0
					c0,0-0.1,0-0.2-0.1c-0.1,0-0.1,0-0.2,0c0,0,0,0-0.1,0c0,0,0,0,0,0.1l-0.1,0l0.1-0.6l0.1,0c0,0.1,0,0.2,0.1,0.3
					c0,0.1,0.1,0.1,0.2,0.2c0.1,0,0.2,0.1,0.3,0.1c0.1,0,0.2,0,0.3-0.1c0.1-0.1,0.1-0.1,0.1-0.2c0,0,0-0.1,0-0.1
					c0,0-0.1-0.1-0.1-0.1c0,0-0.1-0.1-0.3-0.2c-0.2-0.1-0.3-0.2-0.3-0.2c-0.1-0.1-0.1-0.1-0.1-0.2c0-0.1,0-0.1,0-0.2
					c0-0.1,0.1-0.2,0.2-0.3c0.1-0.1,0.3-0.1,0.4-0.1c0.1,0,0.2,0,0.3,0.1c0.1,0,0.1,0,0.1,0C109.1,93.3,109.1,93.3,109.2,93.2
					C109.1,93.3,109.1,93.2,109.2,93.2L109.2,93.2z"/>
			</g>
		</g>
	</g>
</g>
<path id="front_1_" class="st1" d="M55.1,113L60,59.2c0,0,15.2-8.4,40.2-3.9c4.9,0.9,8.8,1.3,12.2,1.8c14.8,2.3,20.1,3,47.6,11.8
	l-4.7,16.8c0,0-3.2,18.1-3.5,26c-0.4,7.9-0.4,15.9-0.4,15.9l-45.1-1.5c0,0-33.8-0.4-45.5-8.6L55.1,113z"/>
<g id="brim_1_">
	<path class="st0" d="M55.4,109.9c0,0-5.6,1.5-9.8,2.3c0,0-44.2,8.5-29.5,20.5c0,0,13.4,7.7,69,14.1c0,0,38.4,4.9,83.9-8.7
		c0,0,15.8-3.9,27.5-8.6c0,0,3.3-1.2,3.4-5.2c0,0-46.5,4.5-72.1,2.6c0,0-42-1-50.9-3.4c0,0-12.3-2.5-21.6-10.3L55.4,109.9z"/>
	<path class="st2" d="M55.4,109.9c0,0-5.6,1.5-9.8,2.3c0,0-44.2,8.5-29.5,20.5c0,0,13.4,7.7,69,14.1c0,0,38.4,4.9,83.9-8.7
		c0,0,15.8-3.9,27.5-8.6c0,0,3.3-1.2,3.4-5.2c0,0-46.5,4.5-72.1,2.6c0,0-42-1-50.9-3.4c0,0-12.3-2.5-21.6-10.3L55.4,109.9z"/>
</g>
<path id="side-right_1_" class="st1" d="M151.5,126.9c0,0-1.1-40.5,12.6-66.6c0,0,16.1-39,48.1-29.6c0,0,18.6,14.7,22.8,36.7
	c0,0,2.4,10.3,0.2,31.8c0,0-0.6,6-1.5,10.9c0,0-1.5,9-10.6,12.6C222.9,122.6,171.6,127.3,151.5,126.9z"/>
<path id="top-right_1_" class="st3" d="M99.5,55.3c0,0,36,4.2,60.7,14.1c0,0,18.1-49.1,52.3-38.2c0,0-26.7-22.2-59.4-23.1
	C153.1,8.1,116.4,6.6,99.5,55.3z"/>
<path id="top-left_1_" class="st3" d="M60.2,59.2c0,0,17.2-7.9,39.3-3.9c0,0,17.9-44.3,52.1-47.3C151.6,8.1,73.4,3.2,60.2,59.2z"/>
<path id="thread_12_" class="st4" d="M56.7,114.4c-5.8,0-38.8,9.9-23.5,13.8c20.2,5.2,80.5,22.4,148.2-2.1"/>
<path id="thread_11_" class="st4" d="M58.7,115.9c-7.4,1.5-34.8,7.7-19,11.4c17.8,4.2,70.1,18.7,129.2-0.9"/>
<path id="thread_10_" class="st4" d="M60.7,117.3c-8.6,1.8-27.6,6.5-14.8,9.4c15.7,3.6,61.3,15.6,113.3,0.2"/>
<path id="thread_9_" class="st4" d="M63.1,118.9c-8,1.7-21,4.9-10.8,7c13.1,2.7,50.2,11.6,93.2,1.5"/>
<g id="thread_8_">
	<g>
		<path class="st5" d="M59.8,61.7c0,0,0.6-0.2,1.7-0.6"/>
		<path class="st6" d="M63.2,60.6c6.4-1.9,20.7-5.3,31.3-2.6c0,0,32.2,3.7,61.5,14"/>
		<path class="st5" d="M156.9,72.3c0.6,0.2,1.1,0.4,1.7,0.6"/>
	</g>
</g>
<path id="thread_7_" class="st7" d="M148.1,126.8c0,0-0.8-39.2,9-58.4"/>
<path id="thread_6_" class="st7" d="M61.3,55.3c0,0,15-5.6,39.3-3.2"/>
<path id="thread_5_" class="st7" d="M95.4,54.7c0,0,10.6-38.3,41.3-46.3"/>
<path id="thread_4_" class="st7" d="M100.7,52.2c0,0,27.9,1.9,60.8,13.3"/>
<path id="thread_3_" class="st7" d="M103.5,55.9c0,0,11.7-41.4,53.9-47.5"/>
<path id="thread_2_" class="st7" d="M206.7,27.1c0,0-30.3-10.3-49.3,39.9"/>
<path id="thread_1_" class="st7" d="M154.6,126.5c0,0,1.2-42.8,10.5-60.7c8.3-16,13.5-22.2,21.8-28.8s22.9-4.7,28-3.4"/>
<g>
</g>
<g>
</g>
<g>
</g>
<g>
</g>
<g>
</g>
<g>
</g>
</svg>
