<?xml version="1.0" encoding="utf-8"?>
<!-- Generator: Adobe Illustrator 19.1.0, SVG Export Plug-In . SVG Version: 6.00 Build 0)  -->
<!DOCTYPE svg PUBLIC "-//W3C//DTD SVG 1.1//EN" "http://www.w3.org/Graphics/SVG/1.1/DTD/svg11.dtd">
<svg version="1.1" id="Layer_2" xmlns="http://www.w3.org/2000/svg" xmlns:xlink="http://www.w3.org/1999/xlink" x="0px" y="0px"
	 viewBox="-740 351.6 246.8 163.4" style="enable-background:new -740 351.6 246.8 163.4;" xml:space="preserve">
<style type="text/css">
	.st0{fill:#FFFFFF;stroke:#231F20;stroke-width:1.7879;stroke-miterlimit:10;}
	.st1{fill:#FFFFFF;}
	.st2{fill:none;stroke:#231F20;stroke-width:1.7879;stroke-miterlimit:10;}
	.st3{fill:#FFFFFF;stroke:#231F20;stroke-width:1.7879;stroke-linecap:round;}
	.st4{fill:none;stroke:#010101;stroke-width:0.447;stroke-miterlimit:10;}
	.st5{fill:none;stroke:#231F20;stroke-width:0.8939;stroke-linecap:round;stroke-miterlimit:10;}
	.st6{fill:none;stroke:#231F20;stroke-width:0.8939;stroke-linecap:round;stroke-miterlimit:10;stroke-dasharray:3.5487,1.7744;}
	.st7{fill:none;stroke:#231F20;stroke-width:0.8939;stroke-linecap:round;stroke-miterlimit:10;stroke-dasharray:3.5757,1.7879;}
</style>
<path id="front_1_" class="st0" d="M-551.6,469.1c-11.7,8.2-45.5,8.6-45.5,8.6l-45.1,1.5c0,0,0-8-0.4-15.9c-0.3-7.9-3.5-26-3.5-26
	l-4.7-16.8c27.5-8.8,32.8-9.5,47.6-11.8c3.4-0.5,7.3-0.9,12.2-1.8c25-4.5,40.2,3.9,40.2,3.9l4.9,53.8L-551.6,469.1z"/>
<g id="tag_1_">
	<g>
		<g>
			<polygon points="-566.9,449.8 -608,453.2 -608.8,439.2 -567.2,434.9 			"/>
		</g>
		<g>
			<g>
				<path class="st1" d="M-568.3,448.9l-38.2,3.3l-0.7-12.1l38.6-4L-568.3,448.9z M-605.9,451.5l36.9-3.2l-0.2-11.7l-37.3,3.8
					L-605.9,451.5z"/>
			</g>
			<g>
				<path class="st1" d="M-598.8,443.7c-0.1,0.7-0.9,1.2-1.7,1.3c-0.9,0.1-1.5-0.3-1.4-0.9c0.1-0.6,0.9-1.2,1.8-1.2
					C-599.4,442.8-598.7,443-598.8,443.7z M-601.1,443.9c0,0.4,0.2,0.6,0.6,0.6c0.4-0.1,0.8-0.3,0.9-0.7c0.1-0.3-0.3-0.5-0.7-0.5
					C-600.7,443.4-601.1,443.6-601.1,443.9z"/>
			</g>
			<g>
				<path class="st1" d="M-597.6,443.1l0,0.4l0.7-0.1l0,0.5l-0.7,0.1l-0.2,0.8l-0.7,0.1l0.4-2l1.6-0.1l-0.2,0.3L-597.6,443.1z"/>
			</g>
			<g>
				<path class="st1" d="M-595.6,442.9l0,0.4l0.7-0.1l0,0.5l-0.7,0.1l-0.2,0.8l-0.7,0.1l0.4-2.1l1.6-0.1l-0.1,0.4L-595.6,442.9z"/>
			</g>
			<g>
				<path class="st1" d="M-592.3,444.2l-0.7,0.1l0.3-1.6l-0.6,0.1l0-0.5l1.9-0.2l0,0.5l-0.6,0.1L-592.3,444.2z"/>
			</g>
			<g>
				<path class="st1" d="M-589.3,442.6l0.2-0.8l0.7-0.1l-0.5,2l-0.7,0.1l0.2-0.9l-1.1,0.1l-0.1,0.9l-0.7,0.1l0.4-2.1l0.7-0.1
					l-0.2,0.8L-589.3,442.6z"/>
			</g>
			<g>
				<path class="st1" d="M-587.4,442.1l0,0.4l0.9-0.1l0,0.5l-0.9,0.1l0,0.4l0.9-0.1l0,0.5l-1.7,0l0.4-2.1l1.6-0.1l0,0.5
					L-587.4,442.1z"/>
			</g>
			<g>
				<path class="st1" d="M-584.8,441.4l1.1-0.1c0.7-0.1,1.4,0.3,1.3,1c-0.1,0.6-0.8,1.1-1.6,1.2l-1.1,0.1L-584.8,441.4z
					 M-584.3,442.9l0.2,0c0.4-0.1,0.8-0.3,0.9-0.7c0-0.4-0.2-0.5-0.7-0.5l-0.2,0L-584.3,442.9z"/>
			</g>
			<g>
				<path class="st1" d="M-579.2,441.8c-0.1,0.7-0.9,1.2-1.7,1.3c-0.9,0.1-1.5-0.4-1.4-1c0.1-0.7,0.9-1.2,1.7-1.3
					C-579.7,440.8-579.1,441.2-579.2,441.8z M-581.5,442.1c0,0.4,0.2,0.6,0.6,0.6c0.4-0.1,0.8-0.3,0.9-0.7c0.1-0.3-0.2-0.5-0.7-0.5
					C-581,441.4-581.5,441.8-581.5,442.1z"/>
			</g>
			<g>
				<path class="st1" d="M-578.4,440.8l0.7-0.1l0.4,1.1l0.8-1.2l0.7-0.1l0,2.1l-0.7,0.1l0-1.2l0,0l-0.9,1.2l-0.3,0l-0.4-1.2l0,0
					l-0.4,1.3l-0.7,0.1L-578.4,440.8z"/>
			</g>
			<g>
				<path class="st1" d="M-574.5,440.8l0,0.4l0.9-0.1l-0.1,0.5l-0.9,0.1l0,0.4l0.9-0.1l-0.1,0.5l-1.6,0.1l0.4-2.1l1.6-0.1l-0.1,0.5
					L-574.5,440.8z"/>
			</g>
			<g>
				<path class="st1" d="M-599.4,446.2l0.1,0.4l-0.1,0c0-0.1,0-0.1,0-0.1l-0.1-0.1c0,0-0.1,0-0.2,0l-0.3,0l0.1,1.1
					c0,0.1,0,0.2,0,0.2s0.1,0.1,0.2,0.1l0.1,0l0,0l-0.9,0.1l0,0l0.1,0c0.1,0,0.1,0,0.2-0.1c0,0,0-0.1,0-0.2l-0.1-1.1l-0.2,0
					c-0.1,0-0.2,0-0.2,0c-0.1,0-0.1,0-0.1,0.1c0,0-0.1,0.1-0.1,0.2l-0.1,0l0-0.4L-599.4,446.2z"/>
				<path class="st1" d="M-598.3,446.9l1-0.1l0-0.5c0-0.1,0-0.1,0-0.2c0,0,0,0-0.1-0.1l-0.1,0l-0.1,0l0,0l0.9-0.1l0,0l-0.1,0l-0.1,0
					c0,0-0.1,0-0.1,0.1c0,0,0,0.1,0,0.2l0.1,0.9c0,0.1,0,0.1,0,0.2c0,0,0,0,0.1,0.1l0.1,0l0.1,0l0,0l-0.9,0.1l0,0l0.1,0
					c0.1,0,0.1,0,0.2,0c0,0,0-0.1,0.1-0.2l0-0.5L-598.3,446.9l0,0.6c0,0.1,0,0.1,0,0.2c0,0,0,0,0.1,0.1l0.1,0l0.1,0l0,0l-0.9,0.1
					l0,0l0.1,0c0.1,0,0.1,0,0.2,0c0,0,0-0.1,0.1-0.2l-0.1-0.9c0-0.1,0-0.1,0-0.2c0,0,0,0-0.1-0.1l-0.1,0l-0.1,0l0,0l0.9-0.1l0,0
					l-0.1,0l-0.1,0c0,0-0.1,0-0.1,0.1c0,0,0,0.1,0,0.2L-598.3,446.9z"/>
				<path class="st1" d="M-595.4,447.4L-595.4,447.4l-0.9,0.1l0,0l0.1,0c0.1,0,0.1,0,0.2,0c0,0,0-0.1,0.1-0.2l-0.1-0.9
					c0-0.1,0-0.1,0-0.2c0,0,0,0-0.1-0.1l-0.1,0l-0.1,0l0,0l0.9-0.1l0,0l-0.1,0c-0.1,0-0.1,0-0.2,0.1c0,0,0,0.1-0.1,0.2l0.1,0.9
					c0,0.1,0,0.1,0,0.2c0,0,0,0,0.1,0.1C-595.6,447.4-595.5,447.4-595.4,447.4L-595.4,447.4z"/>
				<path class="st1" d="M-595.2,445.9l0.5-0.1l1.3,1.1l0-0.8c0-0.1,0-0.2,0-0.2s-0.1-0.1-0.2-0.1l-0.1,0l0,0l0.7-0.1l0,0l-0.1,0
					c-0.1,0-0.1,0-0.2,0.1c0,0,0,0.1-0.1,0.2l0.3,1.2l-0.1,0l-1.4-1.1l0.1,0.9c0,0.1,0,0.2,0,0.2s0.1,0.1,0.2,0.1l0.1,0l0,0
					l-0.7,0.1l0,0l0.1,0c0.1,0,0.1,0,0.2-0.1c0,0,0-0.1,0.1-0.2l-0.1-1c0-0.1-0.1-0.1-0.1-0.1s-0.1,0-0.1-0.1
					C-595.1,445.9-595.1,445.9-595.2,445.9L-595.2,445.9z"/>
				<path class="st1" d="M-591.8,446.3l0.7,0.5c0.1,0.1,0.2,0.2,0.4,0.1c0.1,0,0.2,0.1,0.2,0.1l0,0l-1,0.1l0,0c0.1,0,0.1,0,0.1,0
					s0,0,0-0.1s0,0,0-0.1c0-0.1,0,0-0.1-0.1l-0.7-0.5l0,0.5c0,0.1,0,0.1,0,0.2c0,0,0,0,0.1,0.1l0.1,0l0.1,0l0,0l-0.9,0.1l0,0l0.1,0
					c0.1,0,0.1,0,0.2,0c0,0,0-0.1,0.1-0.2l-0.1-0.9c0-0.1,0-0.1,0-0.2c0,0,0,0-0.1-0.1l-0.1,0l-0.1,0l0,0l0.9-0.1l0,0l-0.1,0l-0.1,0
					c0,0-0.1,0-0.1,0.1c0,0,0,0.1,0,0.2l0,0.5C-592,446.3-592,446.3-591.8,446.3c0.2-0.3,0.4-0.4,0.5-0.5l0-0.1l0,0l-0.1,0l0,0l0,0
					l0.7-0.1l0,0l-0.1,0l-0.1,0c-0.1,0-0.1,0.1-0.2,0.1c0,0-0.1,0.1-0.3,0.2L-591.8,446.3z"/>
				<path class="st1" d="M-589.2,446.8L-589.2,446.8l-0.9,0.1l0,0l0.1,0c0.1,0,0.1,0,0.2,0c0,0,0-0.1,0.1-0.2l-0.1-0.9
					c0-0.1,0-0.1,0-0.2c0,0,0,0-0.1-0.1l-0.1,0l-0.1,0l0,0l0.9-0.1l0,0l-0.1,0c-0.1,0-0.1,0-0.2,0.1c0,0,0,0.1-0.1,0.2l0.1,0.9
					c0,0.1,0,0.1,0,0.2c0,0,0,0,0.1,0.1C-589.3,446.8-589.3,446.9-589.2,446.8L-589.2,446.8z"/>
				<path class="st1" d="M-588.9,445.3l0.5-0.1l1.3,1.1l0-0.8c0-0.1,0-0.2,0-0.2s-0.1-0.1-0.2-0.1l-0.1,0l0,0l0.7-0.1l0,0l-0.1,0
					c-0.1,0-0.1,0-0.2,0.1c0,0,0,0.1-0.1,0.2l0,1.3l-0.1,0l-1.1-1.2l0.1,0.9c0,0.1,0,0.2,0,0.2s0.1,0.1,0.2,0.1l0.1,0l0,0l-0.7,0.1
					l0,0l0.1,0c0.1,0,0.1,0,0.2-0.1c0,0,0-0.1,0.1-0.2l-0.1-1c0-0.1-0.1-0.1-0.1-0.1s-0.1,0-0.1-0.1
					C-588.8,445.4-588.9,445.3-588.9,445.3L-588.9,445.3z"/>
				<path class="st1" d="M-584.5,444.9l0.1,0.5l0,0c0-0.1-0.1-0.2-0.3-0.2s-0.2-0.2-0.5-0.1c-0.2,0-0.4,0.1-0.6,0.3
					c-0.1,0.1-0.2,0.3-0.1,0.5c0,0.2,0,0.3,0.2,0.4c0.1,0.1,0.1,0.2,0.3,0.2c0.1,0.1,0.2,0.1,0.3,0c0.1,0,0.1,0,0.2,0
					c0.1,0,0.1,0,0.2-0.1l0-0.5c0-0.1,0-0.1,0-0.2c0,0,0,0-0.1-0.1c0,0-0.1,0-0.2,0l0,0l0.7-0.1l0,0l0,0c-0.1,0-0.1,0-0.2,0.1
					c0,0,0,0.1,0,0.2l0,0.5c-0.1,0-0.2,0.1-0.3,0.1c-0.1,0-0.2,0-0.4,0.1c-0.4,0.1-0.7,0-0.9-0.2c-0.1-0.2-0.3-0.2-0.3-0.4
					c0-0.1,0.1-0.3,0.1-0.4c0.1-0.2,0.3-0.3,0.4-0.3c0.1-0.1,0.3-0.1,0.5-0.2c0.1,0,0.1,0,0.2,0c0.1,0,0.1,0,0.2,0.1
					c0.1,0,0.1,0,0.1,0C-584.6,445-584.6,444.9-584.5,444.9C-584.6,444.9-584.6,444.9-584.5,444.9L-584.5,444.9z"/>
				<path class="st1" d="M-581,444.5l0.1,0.6l0,0c0-0.2-0.2-0.3-0.3-0.3s-0.2-0.1-0.4,0c-0.1,0-0.2,0-0.4,0.1
					c-0.1,0.1-0.2,0.1-0.3,0.3c-0.1,0.1-0.1,0.3,0,0.4c0,0.1,0,0.3,0.1,0.4c0,0.1,0.1,0.2,0.3,0.2c0.1,0.1,0.2,0.1,0.4,0
					c0.1,0,0.2,0,0.3-0.1c0.1,0,0.2-0.1,0.3-0.3l0,0c-0.1,0.1-0.2,0.2-0.4,0.3c-0.1,0.1-0.3,0.1-0.5,0.2c-0.3,0-0.7,0-0.8-0.2
					c-0.1-0.2-0.3-0.2-0.2-0.4c0-0.2,0.1-0.3,0.1-0.4c0.1-0.1,0.2-0.2,0.4-0.3c0.2-0.1,0.3-0.1,0.5-0.2c0.1,0,0.3,0,0.4,0l0.1,0
					c0,0,0,0,0.1,0C-581.1,444.6-581.1,444.6-581,444.5L-581,444.5z"/>
				<path class="st1" d="M-579.2,445.4l-0.7,0.1l-0.2,0.3c0,0.1-0.1,0.1-0.1,0.1s0,0,0,0.1c0,0,0.1,0,0.2,0l0,0l-0.6,0.1l0,0
					c0.1,0,0.1,0,0.2,0c0.1,0,0.1-0.1,0.2-0.2l0.6-1.3l0,0l0.8,1.2c0,0.1,0.1,0.2,0.1,0.2s0.1,0.1,0.2,0.1l0,0l-0.9,0.1l0,0
					c0.1,0,0.1,0,0.2,0c0,0,0,0,0-0.1c0,0,0-0.1,0-0.2L-579.2,445.4z M-579.2,445.3l-0.3-0.6l-0.3,0.6L-579.2,445.3z"/>
				<path class="st1" d="M-577.4,445.1l0,0.5c0,0.1,0,0.2,0,0.2s0.1,0.1,0.2,0.1l0.1,0l0,0l-0.9,0.1l0,0l0.1,0c0.1,0,0.1,0,0.2-0.1
					c0,0,0-0.1,0.1-0.2l-0.1-1c0-0.1,0-0.2,0-0.2s-0.1-0.1-0.2-0.1l-0.1,0l0,0l0.7-0.1c0.2,0,0.3,0,0.4,0c0.1,0,0.2,0.1,0.2,0.2
					c0.1,0.1,0.1,0.2,0.2,0.3s-0.1,0.2-0.2,0.3s-0.3,0.1-0.5,0.2l-0.1,0C-577.3,445.1-577.4,445.1-577.4,445.1z M-577.4,445l0.1,0
					l0.1,0c0.1,0,0.2,0,0.3-0.1c0.1-0.1,0.1-0.1,0.1-0.2s0-0.1,0-0.2c0-0.1-0.1-0.1-0.1-0.1c-0.1,0-0.1-0.1-0.2-0.1c0,0-0.1,0-0.2,0
					L-577.4,445z"/>
				<path class="st1" d="M-574.8,444l0,0.6l-0.1,0c0-0.1,0-0.2-0.2-0.3c0-0.1-0.1-0.1-0.2-0.2c-0.1,0-0.2-0.1-0.2-0.1
					c-0.1,0-0.2,0-0.3,0.1c-0.1,0-0.1,0.1-0.1,0.2c0,0.1,0,0.1,0,0.1c0.1,0.1,0.2,0.2,0.5,0.2c0.2,0.1,0.4,0.1,0.4,0.1
					c0.1,0,0.1,0.1,0.1,0.2c0,0.1,0,0.1,0,0.2s-0.1,0.2-0.2,0.3c-0.1,0.1-0.3,0.1-0.5,0.2c-0.1,0-0.1,0-0.2,0c0,0-0.1,0-0.2-0.1
					c-0.1,0-0.1,0-0.2,0c0,0,0,0-0.1,0c0,0,0,0,0,0.1l-0.1,0l0-0.6l0.1,0c0,0.1,0,0.2,0.2,0.3c0,0.1,0.1,0.1,0.2,0.2
					c0.1,0,0.2,0.1,0.3,0c0.1,0,0.2,0,0.3-0.1c0.1-0.1,0.1-0.1,0.1-0.2l0-0.1l-0.1-0.1c0,0-0.1-0.1-0.4-0.1
					c-0.2-0.1-0.4-0.1-0.4-0.1c-0.1-0.1-0.1-0.1-0.1-0.2c0-0.1,0-0.1,0-0.2c0-0.1,0.1-0.2,0.2-0.3s0.3-0.1,0.4-0.1
					c0.1,0,0.2,0,0.3,0c0.1,0,0.1,0,0.1,0C-574.9,444.1-574.9,444.1-574.8,444C-574.9,444.1-574.9,444-574.8,444L-574.8,444z"/>
			</g>
		</g>
	</g>
</g>
<g id="brim_1_">
	<path class="st1" d="M-546.1,464.8c-9.3,7.8-21.6,10.3-21.6,10.3c-8.9,2.4-50.9,3.4-50.9,3.4c-25.6,1.9-72.1-2.6-72.1-2.6
		c0.1,4,3.4,5.2,3.4,5.2c11.7,4.7,27.5,8.6,27.5,8.6c45.5,13.6,83.9,8.7,83.9,8.7c55.6-6.4,69-14.1,69-14.1
		c14.7-12-29.5-20.5-29.5-20.5c-4.2-0.8-9.8-2.3-9.8-2.3L-546.1,464.8z"/>
	<path class="st2" d="M-546.1,464.8c-9.3,7.8-21.6,10.3-21.6,10.3c-8.9,2.4-50.9,3.4-50.9,3.4c-25.6,1.9-72.1-2.6-72.1-2.6
		c0.1,4,3.4,5.2,3.4,5.2c11.7,4.7,27.5,8.6,27.5,8.6c45.5,13.6,83.9,8.7,83.9,8.7c55.6-6.4,69-14.1,69-14.1
		c14.7-12-29.5-20.5-29.5-20.5c-4.2-0.8-9.8-2.3-9.8-2.3L-546.1,464.8z"/>
</g>
<path id="side-right_1_" class="st0" d="M-713.9,474.3c-9.1-3.6-10.6-12.6-10.6-12.6c-0.9-4.9-1.5-10.9-1.5-10.9
	c-2.2-21.5,0.2-31.8,0.2-31.8c4.2-22,22.8-36.7,22.8-36.7c32-9.4,48.1,29.6,48.1,29.6c13.7,26.1,12.6,66.6,12.6,66.6
	C-662.4,478.9-713.7,474.2-713.9,474.3z"/>
<path id="top-right_1_" class="st3" d="M-643.9,359.7c-32.7,0.9-59.4,23.1-59.4,23.1C-669.1,371.9-651,421-651,421
	c24.7-9.9,60.7-14.1,60.7-14.1C-607.2,358.2-643.9,359.7-643.9,359.7z"/>
<path id="top-left_1_" class="st3" d="M-642.4,359.6c34.2,3,52.1,47.3,52.1,47.3c22.1-4,39.3,3.9,39.3,3.9
	C-564.2,354.8-642.4,359.7-642.4,359.6z"/>
<path id="thread_12_" class="st4" d="M-672.2,477.7c67.7,24.5,128,7.3,148.2,2.1c15.3-3.9-17.7-13.8-23.5-13.8"/>
<path id="thread_11_" class="st4" d="M-659.7,478c59.1,19.6,111.4,5.1,129.2,0.9c15.8-3.7-11.6-9.9-19-11.4"/>
<path id="thread_10_" class="st4" d="M-650,478.5c52,15.4,97.6,3.4,113.3-0.2c12.8-2.9-6.2-7.6-14.8-9.4"/>
<path id="thread_9_" class="st4" d="M-636.3,479c43,10.1,80.1,1.2,93.2-1.5c10.2-2.1-2.8-5.3-10.8-7"/>
<g id="thread_8_">
	<g>
		<path class="st5" d="M-552.3,412.7c1.1,0.4,1.7,0.6,1.7,0.6"/>
		<path class="st6" d="M-646.8,423.6c29.3-10.3,61.5-14,61.5-14c10.6-2.7,24.9,0.7,31.3,2.6"/>
		<path class="st5" d="M-649.4,424.5c0.6-0.2,1.1-0.4,1.7-0.6"/>
	</g>
</g>
<path id="thread_7_" class="st7" d="M-647.9,420c9.8,19.2,9,58.4,9,58.4"/>
<path id="thread_6_" class="st7" d="M-591.4,403.7c24.3-2.4,39.3,3.2,39.3,3.2"/>
<path id="thread_5_" class="st7" d="M-627.5,360c30.7,8,41.3,46.3,41.3,46.3"/>
<path id="thread_4_" class="st7" d="M-652.3,417.1c32.9-11.4,60.8-13.3,60.8-13.3"/>
<path id="thread_3_" class="st7" d="M-648.2,360c42.2,6.1,53.9,47.5,53.9,47.5"/>
<path id="thread_2_" class="st7" d="M-648.2,418.6c-19-50.2-49.3-39.9-49.3-39.9"/>
<path id="thread_1_" class="st7" d="M-705.7,385.2c5.1-1.3,19.7-3.2,28,3.4c8.3,6.6,13.5,12.8,21.8,28.8
	c9.3,17.9,10.5,60.7,10.5,60.7"/>
</svg>
