<?xml version="1.0" encoding="utf-8"?>
<!-- Generator: Adobe Illustrator 19.1.0, SVG Export Plug-In . SVG Version: 6.00 Build 0)  -->
<!DOCTYPE svg PUBLIC "-//W3C//DTD SVG 1.1//EN" "http://www.w3.org/Graphics/SVG/1.1/DTD/svg11.dtd">
<svg version="1.1" xmlns="http://www.w3.org/2000/svg" xmlns:xlink="http://www.w3.org/1999/xlink" x="0px" y="0px"
	 viewBox="0 0 250 350" style="enable-background:new 0 0 250 350;" xml:space="preserve">
<style type="text/css">
	.st0{fill:#FFFFFF;stroke:#000000;stroke-miterlimit:10;}
	.st1{opacity:0.42;}
	.st2{fill:none;stroke:#231F20;}
	.st3{fill:#221F1F;}
	.st4{fill:#FFFFFF;}
</style>
<g id="brim_1_">
	<g id="brim">
		<path class="st0" d="M177.9,233.1l-13.1,3.8c-25.3,7.3-52.1,7.3-77.4,0l-13.1-3.8l-0.1,3.9c-0.3,14.2,2.6,39.7,13.3,49.1l0,0
			c19.7,17.4,55.4,17.4,75.1-0.1l0,0C174.2,275.7,177.9,248.8,177.9,233.1L177.9,233.1z"/>
	</g>
</g>
<g id="front_1_">
	<g id="front_3_">
		<path class="st0" d="M126.2,227.9L126.2,227.9c-14.5,0.6-30-1.6-44-4.5l1.2-43.7c24.7-10.2,60.9-9.8,85.6,0l1.2,43.7
			C170,223.3,162.6,227.8,126.2,227.9z"/>
	</g>
</g>
<g id="side-right_1_">
	<g id="side-right">
		<path class="st0" d="M229.5,117.9c0,0,3.5,43.5-1.7,87.5c0,0-22.5-1.4-26.3-2.6c-4.5-1.5-15.3-5.5-21-18.4c0,0-3.4-7.3-4-19.4
			c-0.6-12.2,2.6-22.8,9-32.3s19.9-13.4,23.9-14C213.4,117.9,217.2,116.7,229.5,117.9z"/>
	</g>
</g>
<g id="side-left_1_">
	<g id="side-left_3_">
		<path class="st0" d="M22.7,117.9c0,0-3.5,43.5,1.7,87.5c0,0,22.5-1.4,26.3-2.6c4.5-1.5,15.3-5.5,21-18.4c0,0,3.4-7.3,4-19.4
			c0.6-12.2-2.6-22.8-9-32.3s-19.9-13.4-23.9-14C38.8,117.9,35,116.7,22.7,117.9z"/>
	</g>
</g>
<g id="top-right_1_">
	<g id="top-right">
		<path class="st0" d="M214.5,47.7c0,0-4.6-7.4-13-14.6c0,0-9.3,10.3-18,15.7c-8.6,5.3-18,1.5-29.2-1.9c0,0-27.4,41-25.7,109.5
			l39.9,0.5C168.5,156.7,159,87.1,214.5,47.7z"/>
	</g>
</g>
<g id="top-left_1_">
	<g id="top-left_2_">
		<g>
			<g class="st1">
				<path class="st0" d="M68.3,48.7c-8.6-5.3-18-15.7-18-15.7c-8.3,7.3-13,14.6-13,14.6c55.5,39.4,46,109.1,46,109.1l39.9-0.5
					c1.6-68.6-25.7-109.5-25.7-109.5C86.3,50.2,76.9,54,68.3,48.7z"/>
			</g>
		</g>
		<g>
			<g>
				<path class="st2" d="M68.3,48.7c-8.6-5.3-18-15.7-18-15.7c-8.3,7.3-13,14.6-13,14.6c55.5,39.4,46,109.1,46,109.1l39.9-0.5
					c1.6-68.6-25.7-109.5-25.7-109.5C86.3,50.2,76.9,54,68.3,48.7z"/>
			</g>
		</g>
	</g>
</g>
<g id="label">
	<rect x="110" y="193" class="st3" width="30.8" height="14.6"/>
	<path class="st4" d="M139.8,206.7h-28.7v-12.6h28.7V206.7z M111.6,206.1h27.7v-11.6h-27.7V206.1z"/>
	<path class="st4" d="M117.2,198.7c-0.1,0.7-0.7,1.1-1.3,1.1s-1.1-0.5-1-1.1s0.7-1.1,1.3-1.1C116.8,197.6,117.3,198.1,117.2,198.7z
		 M115.4,198.7c-0.1,0.4,0.2,0.6,0.5,0.6s0.6-0.3,0.7-0.6c0-0.3-0.2-0.5-0.5-0.5S115.5,198.4,115.4,198.7z"/>
	<path class="st4" d="M118.1,198.2l-0.1,0.3h0.6l-0.1,0.5h-0.6l-0.1,0.8h-0.5l0.3-2.1h1.2l-0.1,0.5H118.1z"/>
	<path class="st4" d="M119.5,198.2l-0.1,0.3h0.6l-0.1,0.5h-0.6l-0.1,0.8h-0.5l0.3-2.1h1.2l-0.1,0.5H119.5z"/>
	<path class="st4" d="M122,199.8h-0.5l0.3-1.6h-0.4l0.1-0.5h1.4l-0.1,0.5h-0.4L122,199.8z"/>
	<path class="st4" d="M124.3,198.5l0.1-0.8h0.5l-0.3,2.1h-0.5l0.1-0.9h-0.8l-0.1,0.9h-0.5l0.3-2.1h0.5l-0.1,0.8H124.3z"/>
	<path class="st4" d="M125.7,198.2l-0.1,0.3h0.6l-0.1,0.5h-0.6l-0.1,0.4h0.6l-0.1,0.5h-1.2l0.3-2.1h1.2l-0.1,0.5h-0.4V198.2z"/>
	<path class="st4" d="M127.6,197.7h0.8c0.6,0,1,0.5,0.9,1c-0.1,0.6-0.6,1-1.2,1h-0.8L127.6,197.7z M127.9,199.3L127.9,199.3
		c0.4,0,0.7-0.2,0.8-0.6c0.1-0.4-0.2-0.6-0.5-0.6h-0.1L127.9,199.3z"/>
	<path class="st4" d="M131.8,198.7c-0.1,0.7-0.7,1.1-1.3,1.1s-1.1-0.5-1-1.1s0.7-1.1,1.3-1.1C131.4,197.6,131.9,198.1,131.8,198.7z
		 M130.1,198.7c-0.1,0.4,0.2,0.6,0.5,0.6s0.6-0.3,0.7-0.6c0-0.3-0.2-0.5-0.5-0.5S130.1,198.4,130.1,198.7z"/>
	<path class="st4" d="M132.4,197.7h0.5l0.2,1.1l0.6-1.1h0.5v2.1h-0.5v-1.2l0,0l-0.7,1.2h-0.2l-0.3-1.2l0,0l-0.4,1.2h-0.5
		L132.4,197.7z"/>
	<path class="st4" d="M135.3,198.2l-0.1,0.3h0.6l-0.1,0.5h-0.6l-0.1,0.4h0.6l-0.1,0.5h-1.2l0.3-2.1h1.2l-0.1,0.5h-0.4V198.2z"/>
	<path class="st4" d="M116.7,201.3v0.4l0,0c0-0.1,0-0.1,0-0.1l-0.1-0.1c0,0-0.1,0-0.2,0h-0.2v1.2c0,0.1,0,0.2,0,0.2h0.1h0.1l0,0
		h-0.7l0,0h0.1c0.1,0,0.1,0,0.1-0.1c0,0,0-0.1,0-0.2v-1.2h-0.2c-0.1,0-0.1,0-0.2,0c0,0-0.1,0-0.1,0.1s0,0.1-0.1,0.2l0,0v-0.4
		L116.7,201.3L116.7,201.3z"/>
	<path class="st4" d="M117.4,202h0.7v-0.4c0-0.1,0-0.1,0-0.2l0,0H118h-0.1l0,0h0.7l0,0h-0.1h-0.1c0,0,0,0,0,0.1s0,0.1,0,0.2v1
		c0,0.1,0,0.1,0,0.2l0,0h0.1h0.1l0,0h-0.7l0,0h0.1c0.1,0,0.1,0,0.1-0.1c0,0,0-0.1,0-0.2v-0.5L117.4,202v0.6c0,0.1,0,0.1,0,0.2l0,0
		h0.1h0.1l0,0h-0.7l0,0h0.1c0.1,0,0.1,0,0.1-0.1c0,0,0-0.1,0-0.2v-1c0-0.1,0-0.1,0-0.2l0,0H117h-0.1l0,0h0.7l0,0h-0.1h-0.1
		c0,0,0,0,0,0.1s0,0.1,0,0.2V202z"/>
	<path class="st4" d="M119.5,202.8L119.5,202.8h-0.7l0,0h0.1c0.1,0,0.1,0,0.1-0.1c0,0,0-0.1,0-0.2v-1c0-0.1,0-0.1,0-0.2l0,0h-0.1
		h-0.1l0,0h0.7l0,0h-0.1c-0.1,0-0.1,0-0.1,0.1c0,0,0,0.1,0,0.2v1c0,0.1,0,0.1,0,0.2l0,0C119.4,202.8,119.5,202.8,119.5,202.8
		L119.5,202.8z"/>
	<path class="st4" d="M119.8,201.3h0.4l0.9,1.2v-1c0-0.1,0-0.2,0-0.2H121h-0.1l0,0h0.5l0,0h-0.1c-0.1,0-0.1,0-0.1,0.1
		c0,0,0,0.1,0,0.2v1.3l0,0l-1-1.2v0.9c0,0.1,0,0.2,0,0.2h0.1h0.1l0,0h-0.5l0,0h0.1c0.1,0,0.1,0,0.1-0.1c0,0,0-0.1,0-0.2v-1
		c0-0.1-0.1-0.1-0.1-0.1h-0.1C119.9,201.3,119.8,201.3,119.8,201.3L119.8,201.3z"/>
	<path class="st4" d="M122.3,202l0.6,0.6c0.1,0.1,0.2,0.2,0.2,0.2c0.1,0,0.1,0.1,0.2,0.1l0,0h-0.7l0,0h0.1l0,0l0,0c0,0,0,0-0.1-0.1
		l-0.5-0.5v0.5c0,0.1,0,0.1,0,0.2l0,0h0.1h0.1l0,0h-0.7l0,0h0.1c0.1,0,0.1,0,0.1-0.1c0,0,0-0.1,0-0.2v-1c0-0.1,0-0.1,0-0.2l0,0h-0.1
		h-0.1l0,0h0.7l0,0h-0.1h-0.1c0,0,0,0,0,0.1c0,0,0,0.1,0,0.2v0.5C122.1,202,122.2,202,122.3,202c0.2-0.3,0.3-0.4,0.3-0.5v-0.1l0,0
		c0,0,0,0-0.1,0l0,0l0,0h0.6l0,0H123h-0.1l-0.1,0.1c0,0-0.1,0.1-0.2,0.2L122.3,202z"/>
	<path class="st4" d="M124.2,202.8L124.2,202.8h-0.7l0,0h0.1c0.1,0,0.1,0,0.1-0.1c0,0,0-0.1,0-0.2v-1c0-0.1,0-0.1,0-0.2l0,0h-0.1
		h-0.1l0,0h0.7l0,0h-0.1c-0.1,0-0.1,0-0.1,0.1c0,0,0,0.1,0,0.2v1c0,0.1,0,0.1,0,0.2l0,0C124.1,202.8,124.1,202.8,124.2,202.8
		L124.2,202.8z"/>
	<path class="st4" d="M124.5,201.3h0.4l0.9,1.2v-1c0-0.1,0-0.2,0-0.2h-0.1h-0.1l0,0h0.5l0,0H126c-0.1,0-0.1,0-0.1,0.1
		c0,0,0,0.1,0,0.2v1.3l0,0l-1-1.2v0.9c0,0.1,0,0.2,0,0.2h0.1h0.1l0,0h-0.5l0,0h0.1c0.1,0,0.1,0,0.1-0.1c0,0,0-0.1,0-0.2v-1
		c0-0.1-0.1-0.1-0.1-0.1h-0.1C124.5,201.3,124.5,201.3,124.5,201.3L124.5,201.3z"/>
	<path class="st4" d="M127.7,201.2v0.5l0,0c0-0.1-0.1-0.2-0.2-0.3c-0.1-0.1-0.2-0.1-0.4-0.1s-0.3,0.1-0.4,0.2
		c-0.1,0.1-0.1,0.3-0.1,0.5c0,0.1,0,0.3,0.1,0.4c0.1,0.1,0.1,0.2,0.2,0.3s0.2,0.1,0.3,0.1s0.1,0,0.2,0c0.1,0,0.1,0,0.2-0.1v-0.4
		c0-0.1,0-0.1,0-0.2c0,0,0,0-0.1-0.1h-0.1l0,0h0.6l0,0l0,0c-0.1,0-0.1,0-0.1,0.1c0,0,0,0.1,0,0.2v0.5c-0.1,0-0.2,0.1-0.3,0.1
		s-0.2,0-0.3,0c-0.3,0-0.5-0.1-0.7-0.3c-0.1-0.1-0.2-0.3-0.2-0.5c0-0.1,0-0.3,0.1-0.4c0.1-0.1,0.2-0.3,0.3-0.3
		c0.1-0.1,0.2-0.1,0.4-0.1c0.1,0,0.1,0,0.2,0c0,0,0.1,0,0.2,0.1C127.6,201.3,127.6,201.3,127.7,201.2
		C127.7,201.3,127.7,201.3,127.7,201.2C127.7,201.3,127.7,201.3,127.7,201.2L127.7,201.2z"/>
	<path class="st4" d="M130.4,201.2v0.5l0,0c0-0.2-0.1-0.3-0.2-0.3c-0.1-0.1-0.2-0.1-0.3-0.1s-0.2,0-0.3,0.1s-0.1,0.1-0.2,0.2
		c0,0.1-0.1,0.3-0.1,0.4c0,0.1,0,0.3,0.1,0.4c0,0.1,0.1,0.2,0.2,0.2c0.1,0.1,0.2,0.1,0.3,0.1s0.2,0,0.3-0.1s0.2-0.1,0.3-0.3l0,0
		c-0.1,0.1-0.2,0.2-0.3,0.3s-0.2,0.1-0.4,0.1c-0.3,0-0.5-0.1-0.6-0.3c-0.1-0.1-0.2-0.3-0.2-0.5s0-0.3,0.1-0.4
		c0.1-0.1,0.2-0.2,0.3-0.3s0.3-0.1,0.4-0.1c0.1,0,0.2,0,0.3,0.1h0.1C130.3,201.4,130.3,201.3,130.4,201.2
		C130.3,201.3,130.3,201.3,130.4,201.2L130.4,201.2z"/>
	<path class="st4" d="M131.7,202.3h-0.6l-0.1,0.2c0,0.1,0,0.1,0,0.1s0,0,0,0.1s0.1,0,0.1,0l0,0h-0.5l0,0c0.1,0,0.1,0,0.1,0
		s0.1-0.1,0.1-0.2l0.5-1.3l0,0l0.5,1.3c0,0.1,0.1,0.2,0.1,0.2s0.1,0,0.1,0.1l0,0h-0.6l0,0c0.1,0,0.1,0,0.1,0s0,0,0-0.1
		c0,0,0-0.1,0-0.2L131.7,202.3z M131.7,202.2l-0.3-0.6l-0.3,0.6H131.7z"/>
	<path class="st4" d="M133,202.1v0.4c0,0.1,0,0.2,0,0.2l0.1,0.1h0.1l0,0h-0.7l0,0h0.1c0.1,0,0.1,0,0.1-0.1c0,0,0-0.1,0-0.2v-1
		c0-0.1,0-0.2,0-0.2l-0.1-0.1h-0.1l0,0h0.6c0.1,0,0.2,0,0.3,0s0.1,0.1,0.2,0.1c0.1,0.1,0.1,0.1,0.1,0.2c0,0.1,0,0.2-0.1,0.3
		s-0.2,0.1-0.4,0.1h-0.1C133.1,201.9,133.1,202.1,133,202.1z M133,202L133,202h0.2c0.1,0,0.1,0,0.2-0.1c0.1-0.1,0.1-0.1,0.1-0.2
		c0-0.1,0-0.1,0-0.2c0-0.1-0.1-0.1-0.1-0.1c-0.1,0-0.1,0-0.2,0h-0.1L133,202L133,202z"/>
	<path class="st4" d="M135,201.2v0.5l0,0c0-0.1,0-0.2-0.1-0.2c0-0.1-0.1-0.1-0.2-0.1c-0.1,0-0.1-0.1-0.2-0.1c-0.1,0-0.1,0-0.2,0.1
		c-0.1,0-0.1,0.1-0.1,0.2v0.1c0,0.1,0.2,0.1,0.3,0.2c0.1,0.1,0.2,0.1,0.3,0.2s0.1,0.1,0.1,0.1c0,0.1,0,0.1,0,0.2
		c0,0.1,0,0.2-0.1,0.3s-0.2,0.1-0.3,0.1h-0.1h-0.1h-0.1l0,0c0,0,0,0,0,0.1l0,0v-0.5l0,0c0,0.1,0,0.2,0.1,0.2c0,0.1,0.1,0.1,0.2,0.1
		c0.1,0,0.1,0.1,0.2,0.1c0.1,0,0.2,0,0.2-0.1c0.1,0,0.1-0.1,0.1-0.2v-0.1l-0.1-0.1c0,0-0.1-0.1-0.2-0.1s-0.2-0.1-0.3-0.2
		c-0.1,0-0.1-0.1-0.1-0.1c0-0.1,0-0.1,0-0.2c0-0.1,0-0.2,0.1-0.3s0.2-0.1,0.3-0.1s0.2,0,0.3,0.1h0.1
		C134.9,201.3,135,201.3,135,201.2C135,201.3,135,201.3,135,201.2L135,201.2z"/>
</g>
</svg>
