<?xml version="1.0" encoding="utf-8"?>
<!-- Generator: Adobe Illustrator 18.1.1, SVG Export Plug-In . SVG Version: 6.00 Build 0)  -->
<!DOCTYPE svg PUBLIC "-//W3C//DTD SVG 1.1//EN" "http://www.w3.org/Graphics/SVG/1.1/DTD/svg11.dtd">
<svg version="1.1" xmlns="http://www.w3.org/2000/svg" xmlns:xlink="http://www.w3.org/1999/xlink" x="0px" y="0px"
	 viewBox="0 0 250 350" style="enable-background:new 0 0 250 350;" xml:space="preserve">
<style type="text/css">
	.st0{fill:#FFFFFF;stroke:#000000;stroke-miterlimit:10;}
	.st1{opacity:0.42;}
</style>
<g id="brim">
	<path class="st0" d="M177.9,233.1l-13.1,3.8c-25.3,7.3-52.1,7.3-77.4,0l-13.1-3.8l-0.1,3.9c-0.3,14.2,2.6,39.7,13.3,49.1l0,0
		c19.7,17.4,55.4,17.4,75.1-0.1l0,0C174.2,275.7,177.9,248.8,177.9,233.1L177.9,233.1z"/>
</g>
<g id="side-right">
	<path class="st0" d="M229.5,117.9c0,0,3.5,43.5-1.7,87.5c0,0-22.5-1.4-26.3-2.6c-4.5-1.5-15.3-5.5-21-18.4c0,0-3.4-7.3-4-19.4
		c-0.6-12.2,2.6-22.8,9-32.3s19.9-13.4,23.9-14C213.4,117.9,217.2,116.7,229.5,117.9z"/>
</g>
<g id="side-left">
	<path class="st0" d="M22.7,117.9c0,0-3.5,43.5,1.7,87.5c0,0,22.5-1.4,26.3-2.6c4.5-1.5,15.3-5.5,21-18.4c0,0,3.4-7.3,4-19.4
		c0.6-12.2-2.6-22.8-9-32.3s-19.9-13.4-23.9-14C38.8,117.9,35,116.7,22.7,117.9z"/>
</g>
<g id="top-right">
	<path class="st0" d="M214.5,47.7c0,0-4.6-7.4-13-14.6c0,0-9.3,10.3-18,15.7c-8.6,5.3-18,1.5-29.2-1.9c0,0-27.4,41-25.7,109.5
		l39.9,0.5C168.5,156.7,159,87.1,214.5,47.7z"/>
</g>
<g id="top-left">
	<g class="st1">
		<path class="st0" d="M68.3,48.7c-8.6-5.3-18-15.7-18-15.7c-8.3,7.3-13,14.6-13,14.6c55.5,39.4,46,109.1,46,109.1l39.9-0.5
			c1.6-68.6-25.7-109.5-25.7-109.5C86.3,50.2,76.9,54,68.3,48.7z"/>
	</g>
</g>
<g id="front">
	<path class="st0" d="M126.2,227.9L126.2,227.9c-14.5,0.6-30-1.6-44-4.5l1.2-43.7c24.7-10.2,60.9-9.8,85.6,0l1.2,43.7
		C170,223.3,162.6,227.8,126.2,227.9z"/>
	<g>
	</g>
	<g>
	</g>
	<g>
	</g>
	<g>
	</g>
	<g>
	</g>
	<g>
	</g>
</g>
</svg>
