<?xml version="1.0" encoding="utf-8"?>
<!-- Generator: Adobe Illustrator 18.1.1, SVG Export Plug-In . SVG Version: 6.00 Build 0)  -->
<!DOCTYPE svg PUBLIC "-//W3C//DTD SVG 1.1//EN" "http://www.w3.org/Graphics/SVG/1.1/DTD/svg11.dtd">
<svg version="1.1" id="Layer_1" xmlns="http://www.w3.org/2000/svg" xmlns:xlink="http://www.w3.org/1999/xlink" x="0px" y="0px"
	 viewBox="0 0 500 500" style="enable-background:new 0 0 500 500;" xml:space="preserve">
<style type="text/css">
	.st0{stroke:#FFFFFF;stroke-miterlimit:10;}
	.st1{stroke:#FFFFFF;stroke-width:26.0159;stroke-linejoin:round;stroke-miterlimit:10;}
	.st2{fill:#FFFFFF;}
</style>
<circle class="st0" cx="250" cy="249" r="247.4"/>
<g>
	<path class="st1" d="M393.9,111.2c-0.4-2.7-1-5.4-1.8-8c-0.9-2.6-2-5.2-3.4-7.6c-2.7-4.8-6.3-9.1-10.5-12.6
		c-2.1-1.8-4.4-3.4-6.9-4.8c-1.2-0.7-2.8-1.4-4.1-1.8c-1.6-0.6-2.9-0.9-4.3-1.2c-5.5-1.2-10.8-1.4-16-1.2
		c-10.5,0.5-20.5,2.6-30.2,5.6c-5.8,1.8-11.5,3.8-17,6.1c-7-2.7-13.9-5.1-20.9-6.9c-7.1-1.9-14.3-3.2-21.4-4.2
		c-7.2-0.9-14.4-1.2-21.6-1.1c-7.2,0.1-14.4,0.6-21.4,1.6c-7.1,1-14.1,2.3-21.1,4.2c-6.9,1.8-13.8,4.1-20.4,7
		c-1.7,0.7-3.3,1.5-5,2.3l-2.5,1.3l-1.1,0.6l-0.6,0.3l-0.4,0.2l-0.3,0.2c-3.3,2.1-6.3,4.4-9.1,6.8c-5.5,4.9-10.4,10.3-14.8,15.9
		c-4.5,5.6-8.5,11.5-12.3,17.6c-3.8,6.1-7.2,12.3-10.2,18.8c-3,6.5-5.8,13.1-7.7,20.1c-1,3.5-1.8,7-2.4,10.8l-0.3,2.6
		c-0.1,1.1-0.1,1.9-0.2,2.9c-0.1,1.9-0.1,3.7,0,5.6c0.2,3.7,0.6,7.3,1.2,10.9c0.6,3.6,1.3,7.1,2.2,10.6c1.7,7,3.8,13.8,6,20.5
		c2.3,6.7,4.7,13.4,7.3,20c2.6,6.7,5.2,13.1,8.1,19.9l0.1,0.2c0.7,1.1,1.6,2.1,2.8,2.9c3.8,2.4,8.8,1.2,11.1-2.6
		c0.4-0.6,0.7-1.1,1.1-1.7c0.2,0.3,0.5,0.5,0.7,0.8c1.3,1.2,2.3,1.9,3.1,2.5c0.4,0.3,0.8,0.5,1.2,0.7c-1.8,3.1-3.4,6.4-4.5,10
		c-0.3,0.9-0.5,1.8-0.7,2.8c-0.2,1-0.3,1.9-0.4,2.9c-0.2,1.9-0.2,3.9,0.1,6.2c0.1,0.6,0.1,0.9,0.2,1.3l0.2,1.2l0,0.1l0.1,0.4
		l0.1,0.2l0.1,0.4l0.2,0.7c0.1,0.5,0.2,1,0.4,1.4c0.7,1.9,1.6,3.9,2.8,5.6c2.3,3.6,5.8,6.4,9.4,8.4c3.6,1.9,7.4,3,11.1,3.7
		c3.2,0.6,6.3,0.8,9.3,0.8c-2.1,0.7-4.2,1.5-6.3,2.4l-1.7,0.8l-2,1c-0.7,0.3-1.2,0.6-1.7,0.9l-0.4,0.2l-0.2,0.1
		c-0.1,0-0.4,0.2-0.4,0.2l-0.3,0.2c-0.6,0.5-1.4,1-1.8,1.6c-2.1,2.2-2.8,4.3-3.2,5.9c-0.5,1.7-0.7,3.2-0.8,4.6
		c-0.2,2.8-0.1,5.3,0.1,7.7c1,9.5,3.3,17.7,6.3,25.2c1.5,3.8,3.1,7.3,5.4,10.7c1.1,1.7,2.2,3.1,3.3,4.5c1.2,1.4,2.3,2.7,3.6,3.9
		c2.5,2.4,5.1,4.5,7.7,6c2.6,1.6,5.1,2.7,7.3,3.6c2.3,0.9,4.3,1.5,6,2.1c0,1.3,0.2,2.7,0.6,4c0.8,2.6,2.3,4.5,3.6,6
		c0.6,0.7,1.3,1.3,1.8,1.8c0.1,0.4,0.2,0.7,0.3,1.1c0.4,1.3,0.9,2.7,1.1,4.1c0.1,0.7,0.2,1.4,0.2,1.9c0,0.1,0,0.2,0,0.3
		c0,0,0,0,0.1-0.1l0-0.1c-0.1,0.5-0.2,0.7-0.2,0.9l0,0c0,0,0,0,0,0.1l0,0.4c0,0.4,0,0.9,0.1,1.3c0,0.2,0.1,0.5,0.1,0.5l0.1,0.2
		c0.1,0.2,0.2,0.6,0.3,0.7c0.2,0.4,0.4,0.7,0.5,0.9c1.3,1.9,2.5,2.9,3.8,4.1c1.3,1.1,2.6,2.2,4,3.2c2.8,2,5.6,3.8,9.4,5.1
		c0.9,0.3,2,0.5,3,0.7l2.5,0.2c1.1,0.2,2.5,0.6,3.8,1.2c2.6,1.3,5.6,3.3,9.6,4.3c3.9,1,8.4,0.5,11.6-1c3.5-1.4,6.4-3.6,8.7-5.9
		c2.4-2.3,4.3-4.8,6.3-6.6c1-0.9,2-1.7,3-2.2l0.8-0.4l0.5-0.2l0.6-0.3c0.8-0.4,1.4-0.8,2.1-1.1c2.5-1.6,4.7-3.2,6.9-4.9
		c1.1-0.9,2.1-1.8,3.1-3c0.5-0.6,1.1-1.2,1.6-2.4c0.2-0.7,0.6-1.6,0.1-3.3c0-0.1-0.1-0.3-0.1-0.4c0,0,0-0.1,0-0.1l-0.1-0.2
		c-0.1-0.2,0-0.1,0.1,0c0.1,0.3,0.1,0,0.1-0.1l0.1-0.5c0.1-0.4,0.2-0.8,0.3-1.2c0.2-0.9,0.5-1.7,0.8-2.6c0.3-0.8,0.6-1.5,1-2.1
		c0.2-0.3,0.3-0.4,0.4-0.5c0.1-0.1,0.1,0,0.1,0c0.4-0.5,0.3-0.3,0.7-0.8c0.7-0.9,1-1.6,1.4-2.5c0.4-0.9,0.6-2,0.7-3
		c0.1-2.1-0.5-4.1-1.5-5.6c0,0,0-0.1,0-0.1c0.4-1.9,1.1-3.9,1.6-5.2c0.4-1.3,0.7-2.3,0.8-2.3l-0.7-0.2c1.2-0.9,2.4-1.8,3.7-3
		c3.5-2.9,7.6-6.5,12-11.6c0.6-0.6,1.1-1.2,1.7-2.1l0.9-1.2l0.7-1l0.2-0.3l0.1-0.1l0-0.1l0.2-0.3l0.5-0.8c0.3-0.5,0.5-1,0.7-1.5
		c0.4-0.9,0.8-1.9,1.1-2.8c1.3-3.6,2.3-7.2,3.3-11.1c0.9-3.8,1.7-7.8,2.4-12c0.7-4.2,1.2-8.6,1.3-13.5c0-2.5,0-5-0.9-8.6
		c-0.1-0.5-0.3-1-0.5-1.5l-0.2-0.4l-0.3-0.7c-0.3-0.4-0.5-0.9-0.8-1.3l-0.4-0.5L321,314l-0.2-0.3c-0.5-0.6-0.7-0.7-0.7-0.7
		c0,0,0,0,0,0l-0.2-0.2l-0.4-0.3l-0.7-0.6c-0.5-0.3-1.1-0.8-1.5-1l-1.2-0.6l-1.2-0.6c-0.4-0.2-0.7-0.3-1.1-0.4
		c-5.6-1.9-10.4-2.4-15.4-2.9c-1.5-0.1-3-0.2-4.5-0.3c0.1-0.2,0.2-0.4,0.3-0.6c0.7-1.6,2.7-4.1,5.5-6.9c1.4-1.4,3-2.9,4.8-4.4
		c0.9-0.7,1.8-1.5,2.7-2.2c1-0.8,2.1-1.7,3.1-2.6c4.5-3.8,9.3-8.3,13.5-14.2c2.1-2.9,4.1-6.2,5.6-10c1.6-3.8,2.7-8.1,2.7-13
		c0-4.7-1.4-9.9-4.5-14.3c0.5-0.4,1-0.8,1.4-1.2c2.8-2.5,5.3-5.6,7-9.2c1.7-3.6,2.8-7.8,2.8-12c0-1,0-2.1-0.1-3.1
		c0-0.4-0.1-0.9-0.2-1.4c0.5-0.7,1.1-1.5,1.6-2.2c1.6-2,3.2-4,4.8-5.9c3.3-3.8,6.5-7.7,9.5-11.6c3.1-3.9,6.1-7.9,9-11.9l4.4-6
		l4.3-6.1c2.8-4.1,5.6-8.1,8.3-12.3c0.7-1.1,1.3-2,2.1-3.2l2-3.1c1.3-2.3,2.5-4.5,3.6-6.9c2.2-4.6,4-9.6,5.2-14.8
		C394.3,122.2,394.6,116.7,393.9,111.2z M137.7,255.1c-1.2-2.1-2.4-4.2-3.6-6.3c-3.3-6-6.4-12.1-9.1-18.4
		c-2.8-6.2-5.2-12.6-7.2-19.1c-1-3.2-1.9-6.5-2.6-9.8c-0.7-3.3-1.2-6.6-1.5-9.8c-0.2-1.6-0.2-3.2-0.2-4.9c0-0.8,0-1.7,0.1-2.3
		l0.3-2.6c0.4-3.1,1.1-6.4,2-9.6c1.9-6.4,4.4-12.7,7.5-18.7c3.1-6,6.6-11.9,10.5-17.5c3.9-5.6,8-11,12.5-16.1
		c4.4-5.1,9.2-9.9,14.2-14.1c2.5-2.1,5.1-4,7.7-5.5l2.2-1.2l2.1-1.1c1.5-0.7,3-1.4,4.5-2.1c6.1-2.6,12.5-4.9,18.9-6.8
		c6.5-1.9,13.1-3.4,19.7-4.5c6.7-1.1,13.4-1.8,20.1-1.9c6.7-0.1,13.5,0.3,20.1,1.4c6.6,1,13.1,2.8,19.2,5.3c2.6,1.1,5.2,2.4,7.6,3.8
		c-2.6,1.3-5.1,2.6-7.6,4l-1.7,0.9l-0.9,0.5l-0.8,0.5l-3.2,1.9c-2.1,1.4-4.4,2.8-6.5,4.3c-8.3,5.8-16.1,12.3-23.4,19.2
		c-8.6,8.1-16.6,16.6-24.4,25.4c-0.5-1.1-1.1-2.2-1.7-3.5c-2.7-5.3-6.9-12.2-11.8-18.5c-4.9-6.3-10.7-11.9-15.9-14.9
		c-2.6-1.5-5-2.3-6.7-2.4c-0.9-0.1-1.6,0.1-2,0.2c-0.4,0.1-0.7,0.2-0.7,0.2s0.2,0,0.7-0.1c0.4,0,1.1,0,1.9,0.2
		c1.6,0.4,3.7,1.5,5.9,3.3c4.4,3.6,8.9,9.8,12.6,16.4c3.7,6.6,6.4,13.6,8.1,19c0.4,1.3,0.8,2.6,1.1,3.7c0.3,1.1,0.6,2,0.8,2.8
		c0.3,1,0.4,1.6,0.6,2.1c-2.9,3.4-5.7,6.9-8.5,10.4c-12.4,15.5-23.9,31.6-35.2,47.8C154.7,229.3,146.1,242.2,137.7,255.1z
		 M156.2,263c-0.3-0.2-1.2-3.2-1.1-2.9c0-0.8,0.1-1.8,0.3-3c6.7-10.8,13.6-21.5,20.5-32.1c3.3-5.1,6.7-10.1,10.1-15.1
		c1.5-1.4,3.1-2.8,4.8-4.1c6.3-5.1,13.3-9.7,20.7-14c7.4-4.3,15-8.4,22.7-12.4c7.8-4.1,15.4-7.8,23.2-11.1
		c7.8-3.2,15.5-6.1,23.2-7.8c7.6-1.8,15-2.7,21.6-1.8c3.3,0.4,6.3,1.2,9,2.4c2.6,1.2,4.7,2.9,6.4,4.8c1.6,1.9,2.7,4.1,3.2,6.2
		c0.2,1.1,0.4,2.1,0.3,3.1c0,0.7,0,1.5,0,2.1c-0.1,0.5-0.1,1-0.2,1.6c-0.6,4.5-2.2,8.6-3.7,11.8c-0.6,1.2-1.1,2.2-1.7,3.2
		c-1.1-0.2-2.1-0.3-3.1-0.4c-7-0.6-13.8-0.2-20.5,0.8c-6.6,1-13.1,2.6-19.4,4.4c-6.3,1.9-12.5,4-18.5,6.5c-6,2.4-12,5.1-17.8,8
		c-5.8,2.9-11.4,6.1-17,9.2c-5.6,3.2-11.1,6.5-16.6,9.8c-5.5,3.4-10.9,6.9-16.2,10.6c-5.3,3.7-10.5,7.6-15.5,11.8
		c-3.6,3.1-7.2,6.3-10.5,9.8c-0.1,0-0.2-0.1-0.3-0.1c-0.9-0.4-2.2-0.9-3.1-1.3c-0.5-0.2-0.8-0.4-0.9-0.3
		C156.1,262.7,156.3,263.1,156.2,263z M206.5,416.7L206.5,416.7C206.5,416.7,206.5,416.7,206.5,416.7z M206.6,416.8l-0.1-0.1
		l0.3,0.3c0,0,0,0,0,0L206.6,416.8z M215.9,423.8C215.9,423.7,215.9,423.7,215.9,423.8L215.9,423.8c0-0.1,0.1,0.1,0.1,0.1
		C215.9,423.8,215.9,423.8,215.9,423.8z M282.6,417.3c0-0.3,0.1-0.5,0.1-0.6C282.8,416.7,282.7,417,282.6,417.3z M284.3,401.5
		c0,0-0.1,0.1-0.1,0.2c0,0,0-0.1,0-0.1c0-0.2,0.1-0.3,0.2-0.4c0.1-0.1,0,0.1,0.2-0.1C284.5,401.1,284.3,401.4,284.3,401.5z
		 M297.1,322.3c2.2,0.1,4.3,0.3,6.3,0.6c1,0.2,2,0.2,2.9,0.5l1.3,0.3l1.1,0.3l0.4,0.1c0.1,0.9,0.3,2.1,0.3,3.3
		c0.1,3.7-0.2,7.7-0.6,11.5c-0.4,3.8-1,7.5-1.7,11s-1.5,6.8-2.4,9.7c-0.2,0.7-0.5,1.3-0.7,1.9l-0.3,0.7l-0.1,0.2l0,0c0,0,0,0,0,0
		c0,0,0,0,0,0l-0.1,0.3l-0.6,1l-0.5,0.7c-0.3,0.4-0.7,1-1.1,1.5c-3.4,4.3-7.1,8-10,11c-3,2.9-5.4,5.1-7,6.5
		c-0.8,0.7-1.4,1.2-1.8,1.4c-0.4,0.3-0.5,0.4-0.5,0.4l1.4,2.6c-0.2,0.6-0.4,1.3-0.6,2.2c-0.3,1.1-0.6,2.5-0.8,4.3
		c-0.1,0.9-0.2,1.9-0.1,3.6c0.1,0.5,0.2,1,0.4,1.7c0.1,0.4,0.2,0.7,0.5,1.2c0.2,0.4,0.4,0.7,0.7,1l0.3,0.4l0,0
		c-0.1,0.2-0.2,0.3-0.3,0.5c-0.4,0.8-0.7,1.4-0.9,2.1c-0.4,1.3-0.7,2.5-0.9,3.8c-0.2,1.3-0.3,2.5-0.2,3.9c0,0.7,0,1.4,0.1,2.1
		c0,0.4,0.1,0.8,0.2,1.2c0.1,0.5,0.1,0.8,0.4,1.7c0,0.1,0.1,0.2,0.1,0.3c-0.4,0.7-1,1.5-1.6,2.2c-1.5,1.7-3.4,3.3-5.5,4.5
		c-0.5,0.3-1,0.5-1.5,0.7l-0.8,0.3l-1.1,0.4c-1.4,0.6-2.8,1.2-4.3,1.7c-2.8,1.1-5.6,1.8-8.3,2.3c-2.5,0.3-5,0.7-7.5,1.1
		c-2.5,0.3-4,0.7-6.3,1.4c-2.2,0.7-5.2,1.2-8.6,1.2l-5.4,0c-0.4,0-0.8,0-1.2,0l-0.6,0l-0.3,0c-0.4,0-1-0.1-1.5-0.2
		c-2.3-0.5-4.7-2-6.8-3.8c-1.1-0.9-2-1.9-2.9-3c-0.6-0.6-1.1-1.4-1.6-2.1l0-0.1c0.2-1,0.4-1.8,0.7-2.6c0.5-1.7,1-3.2,1.4-5
		c0.2-0.8,0.3-1.7,0.3-2.7c0-0.5-0.1-1-0.2-1.7c0-0.3-0.1-0.7-0.3-1.2l-0.1-0.4l-0.1-0.2l-0.2-0.5c-0.1-0.3-0.3-0.7-0.4-0.9
		l-0.1-0.1c0,0-0.4-0.6-0.5-0.7c0,0,0-0.1,0-0.1l-0.2-0.2c-0.2-0.2-0.3-0.3-0.4-0.4c-0.2-0.2-0.4-0.4-0.5-0.5
		c-0.3-0.2-0.5-0.4-0.7-0.6l-0.9-0.7c-0.5-0.4-0.9-0.7-1.3-0.9c-0.7-0.6-1-1-1.2-1.1c-0.1-0.1-0.1-0.1-0.1-0.1c0,0,0,0-0.1-0.1
		c0,0,0-0.1,0-0.1c0,0,0,0,0,0c0-0.1,0-0.2,0.1-0.3c0,0,0,0,0,0l0,0c0,0,0-0.1,0-0.1c0.1-0.1,0.2-0.4,0.4-0.7
		c0.5-0.6,1.3-1.2,2.2-1.8c1.9-1.2,4.1-2.3,6.2-3.3c2.2-1,4.4-2,6.5-2.8c8.7-3.4,15.9-6.2,21-8.1c5.1-2,8-3.3,8-3.3
		s-0.8,0.1-2.3,0.2c-1.5,0.1-3.6,0.3-6.3,0.6c-2.7,0.3-6,0.7-9.8,1.2c-3.8,0.5-8,1.1-12.7,2.1c-4.7,1-9.7,1.9-15.4,4.4
		c-1.4,0.7-2.9,1.4-4.5,2.6c-0.4,0.3-0.7,0.6-1.1,0.9c-1.7-0.7-3.7-1.5-5.9-2.5c-3.6-1.7-7.4-4.1-10.9-8c-0.9-1-1.7-2.1-2.6-3.3
		c-0.8-1.2-1.7-2.5-2.4-3.7c-1.3-2.4-2.7-5.5-3.8-8.8c-2.2-6.5-4-14.2-4.4-21.8c-0.1-1.9-0.1-3.7,0.2-5.3c0.1-0.7,0.2-1.3,0.4-1.7
		c0.4-0.2,0.8-0.4,1.1-0.5l1.1-0.5l1.4-0.6c2-0.7,4-1.4,6.2-2.1c8.5-2.7,17.8-4.8,27.2-6.7c9.4-1.9,19.1-3.5,28.8-4.6l7.3-0.8
		c2.5-0.3,5-0.6,7.4-0.8c4.8-0.5,9.7-0.8,14.4-1.1C278.8,322.1,288.3,321.7,297.1,322.3z M227.1,279.6c-0.9-0.6-1.6-1.3-2.4-1.8
		c2.9,0.9,6.6,2,10.1,3.5c1.9,0.8,3.7,1.6,5.3,2.4c0.7,0.4,1.5,0.8,2.1,1.2c0.6,0.4,1.2,0.8,1.5,1.1c-0.6,1.2-1.3,2.4-1.6,3.7
		c-0.4,1.3-0.8,2.5-1.2,3.8c-0.2,1.3-0.4,2.5-0.6,3.8l0,0.1c-0.1-0.4-0.3-0.8-0.5-1.2c-0.6-1.7-1.5-3.4-2.4-5.1l-1.5-2.4
		c-0.5-0.8-1.1-1.5-1.6-2.2c-0.5-0.7-1.2-1.4-1.7-2c-0.6-0.7-1.2-1.3-1.8-1.8C229.4,281.5,228.2,280.6,227.1,279.6z M315.6,252.3
		c-0.1,4.2-2.4,9.2-5.4,13.5c-3.1,4.4-6.8,8.4-10.5,11.9c-1,1-2,1.9-2.9,2.8c-1,1-2,2-3,3c-1.8,2-3.5,3.9-5.1,5.9
		c-3,4-5.5,8-6.6,12.6c-0.3,1.3-0.5,2.6-0.5,3.9c-1.9,0-3.8,0-5.7,0c-2.5,0.1-5,0.2-7.5,0.3c-4.4,0.3-8.8,0.6-13.2,1
		c-0.1-0.3-0.3-0.7-0.4-1.1c-0.4-1.1-1-2.4-1.3-3.8c-0.1-0.7-0.3-1.4-0.5-2.2c-0.1-0.4-0.2-0.8-0.3-1.2l-0.1-1.2
		c0-0.8-0.1-1.7-0.2-2.5c0.1-0.9,0.2-1.7,0.3-2.6c0-0.9,0.3-1.8,0.5-2.7c0.2-0.9,0.4-1.9,0.9-2.8c0.4-0.9,0.7-1.9,1.2-2.8l1.6-2.8
		c1.2-1.8,2.5-3.6,4-5.3c1.4-1.7,3.1-3.2,4.6-4.8c1.6-1.4,3.2-2.9,4.8-4.2c1.6-1.3,3.1-2.5,4.5-3.5c2.8-2.2,5.3-3.9,7-5.1
		c1.5-1,2.4-1.7,2.7-1.9c-0.2,0.1-1.3,0.5-3,1.2c-1.9,0.8-4.7,2-8,3.5c-1.7,0.7-3.4,1.6-5.3,2.6c-1.9,0.9-3.8,2.1-5.8,3.2
		c-1.9,1.3-4,2.5-6,4.1c-1.3,0.9-2.4,1.9-3.6,3c-1.1-0.7-1.8-0.8-2.8-1.2c-1-0.4-2-0.6-3.1-0.9c-1.1-0.3-2.2-0.4-3.3-0.6
		c-2.2-0.3-4.5-0.5-6.8-0.6c-2.6-0.1-5.2-0.1-7.5,0c1.8-0.9,3.7-1.8,5.6-2.6c5.7-2.6,11.7-5.3,18-7.9c6.3-2.7,12.8-5.2,19.4-7.6
		c6.6-2.4,13.4-4.7,20.2-6.3c3.4-0.8,6.7-1.6,9.9-2c3.2-0.4,6.3-0.5,8.5-0.1c0.5,0.1,1,0.2,1.2,0.4c0.1,0.1,0.1,0.1,0.2,0.1l0.3,0.2
		c0.1,0.1,0.4,0.3,0.5,0.3c0,0.1,0.3,0.3,0.6,0.6c0.3,0.3,0.5,0.6,0.7,0.9C315.2,248.5,315.7,250.2,315.6,252.3z M323.6,222.7
		c-0.6,2.3-1.7,4.6-3.1,6.9c-0.3,0.5-0.7,1.1-1,1.7l-0.2-0.1c-0.7-0.4-1.4-0.6-2.2-0.9c-1.4-0.5-2.7-0.7-4-0.9
		c-5-0.6-9.2,0-13.2,0.7c-4,0.8-7.8,1.8-11.5,3c-7.3,2.4-14.3,5.3-21,8.4c-6.7,3.1-13.1,6.4-19.2,9.7c-6.1,3.3-11.9,6.7-17.3,10
		s-10.5,6.5-15.1,9.6c-9.2,6.1-16.6,11.6-21.8,15.5c-4.8,3.7-7.6,6-7.9,6.2c0.4-0.2,3.6-1.9,8.9-4.7c4.4-2.3,10.2-5.3,17.2-8.7
		l-0.1,0.2c0,0,0.6,0.5,1.6,1.4c1,0.9,2.4,2.1,4,3.7c0.8,0.8,1.6,1.6,2.4,2.5c0.8,0.9,1.6,1.9,2.4,2.9c0.4,0.5,0.8,1,1.1,1.6
		c0.3,0.5,0.7,1,1,1.6c0.3,0.6,0.6,1.1,0.9,1.7l0.7,1.7c0.4,1.2,0.8,2.3,1,3.6c0.3,1.2,0.4,2.4,0.5,3.6c0.1,1.2,0.1,2.4,0.1,3.5
		c-0.1,1.1-0.1,2.2-0.2,3.2c0,0.1,0,0.3-0.1,0.4c-10,1.7-19.9,3.7-29.5,6.3l-0.8-4.2l-1.3-6.9l-8.5,0.5c-1,0.3-2.5,0.7-3.8,1
		c-1.4,0.3-2.8,0.5-4.1,0.7c-2.8,0.3-5.6,0.4-8.2,0.2c-5.3-0.3-9.8-2.1-12.4-5.4c-0.7-0.8-1.2-1.8-1.7-2.8c-0.1-0.3-0.2-0.5-0.3-0.8
		l-0.1-0.4l-0.1-0.2l0,0l0,0.1l0-0.1l0,0c0,0,0-0.1,0-0.1l-0.2-0.9c-0.1-0.3-0.2-0.9-0.2-1c-0.1-0.9-0.3-2.1-0.2-3.3
		c0-0.6,0-1.2,0.2-1.8c0.1-0.6,0.2-1.3,0.3-1.9c1.2-5.1,4-10.3,7.7-15c3.6-4.8,7.9-9.2,12.5-13.4c4.5-4.2,9.5-8.1,14.5-11.9
		c10.1-7.5,20.7-14.4,31.6-20.8c5.5-3.2,11-6.4,16.5-9.3c5.5-2.9,11.3-5.4,17.2-7.4c5.9-2,11.9-3.6,18.1-4.6
		c6.1-1.1,12.2-1.6,18.3-1.7c6.1-0.1,12.1,0.3,17.7,1.3c2.8,0.5,5.5,1.2,7.9,2.1c2.4,0.8,4.5,2.2,5.1,2.9c0.1,0.1,0.1,0.1,0.1,0.2
		l0,0.1l0.1,0.6c0.2,0.9,0.2,1.1,0.3,1.6c0,0.6,0.1,1.1,0.2,1.7C324.5,218.2,324.2,220.4,323.6,222.7z M385.2,125.9
		c-0.6,4.5-2.1,8.9-3.9,13.2c-0.9,2.1-2,4.2-3.1,6.2l-1.9,3.2c-0.5,0.9-1.3,2-1.9,3c-2.6,4.1-5.4,8.1-8.2,12.1
		c-2.9,3.9-5.8,7.8-8.8,11.6c-3.1,3.8-6.2,7.5-9.5,11c-3.3,3.5-6.7,7-10.1,10.3c-1.5,1.5-3.2,2.9-4.9,4.2c-1.4-1.3-2.9-2.2-4.3-3
		c-1.2-0.6-2.4-1.1-3.5-1.6c0.2-0.4,0.5-0.8,0.7-1.3c1.9-3.7,3.9-8.5,4.9-14.7c0.1-0.8,0.2-1.7,0.3-2.5c0.1-0.8,0.1-1.4,0.1-2.2
		c0.1-1.8-0.1-3.8-0.4-5.6c-0.7-3.8-2.5-7.5-5-10.8c-2.6-3.2-6-6-9.7-8c-3.8-1.9-8-3.2-12.2-3.9c-4.2-0.7-8.6-0.9-12.9-0.7
		c-4.3,0.2-8.7,0.7-13,1.6c-8.6,1.7-17.2,4.4-25.6,7.7c-8.3,3.3-16.7,7.3-24.6,11.5c-7.3,3.9-14.2,8.3-20.8,13.1
		c0.8-1.1,1.6-2.2,2.4-3.3c11.7-15.5,24-30.5,37.6-44.1c6.8-6.8,14-13.1,21.6-18.7c1.9-1.4,3.7-2.6,5.7-4l3.1-1.9l0.8-0.5l0.7-0.4
		l1.6-0.9c4.2-2.4,8.4-4.7,12.7-6.8c8.6-4.3,17.5-7.9,26.6-10.4c9.1-2.5,18.5-4.1,27.6-4.2c4.6-0.1,9.1,0.2,13.3,1
		c1,0.2,2.1,0.5,2.8,0.8c1,0.4,1.7,0.6,2.7,1.1c1.8,0.9,3.6,2.1,5.2,3.4c6.8,5.3,12,12.7,13.7,21.2
		C385.8,117,385.9,121.4,385.2,125.9z"/>
	<path d="M267,389.6c0,0-0.6,0.2-1.8,0.5c-1.1,0.3-2.8,0.8-4.7,1.5c-3.8,1.3-8.7,3.5-13.4,6c-4.7,2.5-9.3,5.2-12.6,7.4
		c-3.4,2.2-5.6,3.7-5.6,3.7l0,0c-2.4,1.5-5.5,0.9-7.1-1.5c-1.5-2.4-0.9-5.5,1.5-7.1c0.3-0.2,0.7-0.4,1.1-0.6c0,0,2.6-0.9,6.5-2.3
		c3.9-1.4,9.2-3,14.6-4.4c5.4-1.3,10.8-2.3,14.9-2.7c2.1-0.2,3.7-0.3,4.9-0.3C266.3,389.6,267,389.6,267,389.6z"/>
	<path d="M272.2,406.3c-0.3,0.1-0.7,0.1-1,0.1l-0.1,0c0,0-0.8,0-2.1,0c-0.3,0-0.7,0-1.1,0c-0.3,0-0.7,0-1.1,0.1
		c-0.8,0.1-1.7,0.1-2.8,0.2c-1.1,0.2-2.2,0.3-3.5,0.6c-1.3,0.3-2.6,0.5-4,0.8c-1.4,0.3-2.8,0.7-4.2,1.1c-1.4,0.4-2.9,0.8-4.4,1.3
		c-5.8,1.8-11.6,4-16,5.7c-4.1,1.6-6.8,2.9-7.1,3c0.7-0.5,10.4-7.6,21-13.5c1.4-0.8,2.8-1.5,4.2-2.2c1.4-0.7,2.8-1.4,4.1-2
		c1.4-0.7,2.7-1.2,4-1.8c1.3-0.5,2.6-1,3.7-1.4c1.1-0.4,2.4-0.7,3.4-1.1c0.5-0.1,1-0.3,1.5-0.4c0.4-0.1,0.8-0.2,1.1-0.2
		c1.3-0.3,2.1-0.5,2.1-0.5c2.8-0.6,5.5,1.2,6.1,3.9C276.7,403,275,405.7,272.2,406.3z"/>
	<path d="M393.9,111.2c-0.4-2.7-1-5.4-1.8-8c-0.9-2.6-2-5.2-3.4-7.6c-2.7-4.8-6.3-9.1-10.5-12.6c-2.1-1.8-4.4-3.4-6.9-4.8
		c-1.2-0.7-2.8-1.4-4.1-1.8c-1.6-0.6-2.9-0.9-4.3-1.2c-5.5-1.2-10.8-1.4-16-1.2c-10.5,0.5-20.5,2.6-30.2,5.6
		c-5.8,1.8-11.5,3.8-17,6.1c-7-2.7-13.9-5.1-20.9-6.9c-7.1-1.9-14.3-3.2-21.4-4.2c-7.2-0.9-14.4-1.2-21.6-1.1
		c-7.2,0.1-14.4,0.6-21.4,1.6c-7.1,1-14.1,2.3-21.1,4.2c-6.9,1.8-13.8,4.1-20.4,7c-1.7,0.7-3.3,1.5-5,2.3l-2.5,1.3l-1.1,0.6
		l-0.6,0.3l-0.4,0.2l-0.3,0.2c-3.3,2.1-6.3,4.4-9.1,6.8c-5.5,4.9-10.4,10.3-14.8,15.9c-4.5,5.6-8.5,11.5-12.3,17.6
		c-3.8,6.1-7.2,12.3-10.2,18.8c-3,6.5-5.8,13.1-7.7,20.1c-1,3.5-1.8,7-2.4,10.8l-0.3,2.6c-0.1,1.1-0.1,1.9-0.2,2.9
		c-0.1,1.9-0.1,3.7,0,5.6c0.2,3.7,0.6,7.3,1.2,10.9c0.6,3.6,1.3,7.1,2.2,10.6c1.7,7,3.8,13.8,6,20.5c2.3,6.7,4.7,13.4,7.3,20
		c2.6,6.7,5.2,13.1,8.1,19.9l0.1,0.2c0.7,1.1,1.6,2.1,2.8,2.9c3.8,2.4,8.8,1.2,11.1-2.6c0.4-0.6,0.7-1.1,1.1-1.7
		c0.2,0.3,0.5,0.5,0.7,0.8c1.3,1.2,2.3,1.9,3.1,2.5c0.4,0.3,0.8,0.5,1.2,0.7c-1.8,3.1-3.4,6.4-4.5,10c-0.3,0.9-0.5,1.8-0.7,2.8
		c-0.2,1-0.3,1.9-0.4,2.9c-0.2,1.9-0.2,3.9,0.1,6.2c0.1,0.6,0.1,0.9,0.2,1.3l0.2,1.2l0,0.1l0.1,0.4l0.1,0.2l0.1,0.4l0.2,0.7
		c0.1,0.5,0.2,1,0.4,1.4c0.7,1.9,1.6,3.9,2.8,5.6c2.3,3.6,5.8,6.4,9.4,8.4c3.6,1.9,7.4,3,11.1,3.7c3.2,0.6,6.3,0.8,9.3,0.8
		c-2.1,0.7-4.2,1.5-6.3,2.4l-1.7,0.8l-2,1c-0.7,0.3-1.2,0.6-1.7,0.9l-0.4,0.2l-0.2,0.1c-0.1,0-0.4,0.2-0.4,0.2l-0.3,0.2
		c-0.6,0.5-1.4,1-1.8,1.6c-2.1,2.2-2.8,4.3-3.2,5.9c-0.5,1.7-0.7,3.2-0.8,4.6c-0.2,2.8-0.1,5.3,0.1,7.7c1,9.5,3.3,17.7,6.3,25.2
		c1.5,3.8,3.1,7.3,5.4,10.7c1.1,1.7,2.2,3.1,3.3,4.5c1.2,1.4,2.3,2.7,3.6,3.9c2.5,2.4,5.1,4.5,7.7,6c2.6,1.6,5.1,2.7,7.3,3.6
		c2.3,0.9,4.3,1.5,6,2.1c0,1.3,0.2,2.7,0.6,4c0.8,2.6,2.3,4.5,3.6,6c0.6,0.7,1.3,1.3,1.8,1.8c0.1,0.4,0.2,0.7,0.3,1.1
		c0.4,1.3,0.9,2.7,1.1,4.1c0.1,0.7,0.2,1.4,0.2,1.9c0,0.1,0,0.2,0,0.3c0,0,0,0,0.1-0.1l0-0.1c-0.1,0.5-0.2,0.7-0.2,0.9l0,0
		c0,0,0,0,0,0.1l0,0.4c0,0.4,0,0.9,0.1,1.3c0,0.2,0.1,0.5,0.1,0.5l0.1,0.2c0.1,0.2,0.2,0.6,0.3,0.7c0.2,0.4,0.4,0.7,0.5,0.9
		c1.3,1.9,2.5,2.9,3.8,4.1c1.3,1.1,2.6,2.2,4,3.2c2.8,2,5.6,3.8,9.4,5.1c0.9,0.3,2,0.5,3,0.7l2.5,0.2c1.1,0.2,2.5,0.6,3.8,1.2
		c2.6,1.3,5.6,3.3,9.6,4.3c3.9,1,8.4,0.5,11.6-1c3.5-1.4,6.4-3.6,8.7-5.9c2.4-2.3,4.3-4.8,6.3-6.6c1-0.9,2-1.7,3-2.2l0.8-0.4
		l0.5-0.2l0.6-0.3c0.8-0.4,1.4-0.8,2.1-1.1c2.5-1.6,4.7-3.2,6.9-4.9c1.1-0.9,2.1-1.8,3.1-3c0.5-0.6,1.1-1.2,1.6-2.4
		c0.2-0.7,0.6-1.6,0.1-3.3c0-0.1-0.1-0.3-0.1-0.4c0,0,0-0.1,0-0.1l-0.1-0.2c-0.1-0.2,0-0.1,0.1,0c0.1,0.3,0.1,0,0.1-0.1l0.1-0.5
		c0.1-0.4,0.2-0.8,0.3-1.2c0.2-0.9,0.5-1.7,0.8-2.6c0.3-0.8,0.6-1.5,1-2.1c0.2-0.3,0.3-0.4,0.4-0.5c0.1-0.1,0.1,0,0.1,0
		c0.4-0.5,0.3-0.3,0.7-0.8c0.7-0.9,1-1.6,1.4-2.5c0.4-0.9,0.6-2,0.7-3c0.1-2.1-0.5-4.1-1.5-5.6c0,0,0-0.1,0-0.1
		c0.4-1.9,1.1-3.9,1.6-5.2c0.4-1.3,0.7-2.3,0.8-2.3l-0.7-0.2c1.2-0.9,2.4-1.8,3.7-3c3.5-2.9,7.6-6.5,12-11.6
		c0.6-0.6,1.1-1.2,1.7-2.1l0.9-1.2l0.7-1l0.2-0.3l0.1-0.1l0-0.1l0.2-0.3l0.5-0.8c0.3-0.5,0.5-1,0.7-1.5c0.4-0.9,0.8-1.9,1.1-2.8
		c1.3-3.6,2.3-7.2,3.3-11.1c0.9-3.8,1.7-7.8,2.4-12c0.7-4.2,1.2-8.6,1.3-13.5c0-2.5,0-5-0.9-8.6c-0.1-0.5-0.3-1-0.5-1.5l-0.2-0.4
		l-0.3-0.7c-0.3-0.4-0.5-0.9-0.8-1.3l-0.4-0.5L321,314l-0.2-0.3c-0.5-0.6-0.7-0.7-0.7-0.7c0,0,0,0,0,0l-0.2-0.2l-0.4-0.3l-0.7-0.6
		c-0.5-0.3-1.1-0.8-1.5-1l-1.2-0.6l-1.2-0.6c-0.4-0.2-0.7-0.3-1.1-0.4c-5.6-1.9-10.4-2.4-15.4-2.9c-1.5-0.1-3-0.2-4.5-0.3
		c0.1-0.2,0.2-0.4,0.3-0.6c0.7-1.6,2.7-4.1,5.5-6.9c1.4-1.4,3-2.9,4.8-4.4c0.9-0.7,1.8-1.5,2.7-2.2c1-0.8,2.1-1.7,3.1-2.6
		c4.5-3.8,9.3-8.3,13.5-14.2c2.1-2.9,4.1-6.2,5.6-10c1.6-3.8,2.7-8.1,2.7-13c0-4.7-1.4-9.9-4.5-14.3c0.5-0.4,1-0.8,1.4-1.2
		c2.8-2.5,5.3-5.6,7-9.2c1.7-3.6,2.8-7.8,2.8-12c0-1,0-2.1-0.1-3.1c0-0.4-0.1-0.9-0.2-1.4c0.5-0.7,1.1-1.5,1.6-2.2
		c1.6-2,3.2-4,4.8-5.9c3.3-3.8,6.5-7.7,9.5-11.6c3.1-3.9,6.1-7.9,9-11.9l4.4-6l4.3-6.1c2.8-4.1,5.6-8.1,8.3-12.3
		c0.7-1.1,1.3-2,2.1-3.2l2-3.1c1.3-2.3,2.5-4.5,3.6-6.9c2.2-4.6,4-9.6,5.2-14.8C394.3,122.2,394.6,116.7,393.9,111.2z M137.7,255.1
		c-1.2-2.1-2.4-4.2-3.6-6.3c-3.3-6-6.4-12.1-9.1-18.4c-2.8-6.2-5.2-12.6-7.2-19.1c-1-3.2-1.9-6.5-2.6-9.8c-0.7-3.3-1.2-6.6-1.5-9.8
		c-0.2-1.6-0.2-3.2-0.2-4.9c0-0.8,0-1.7,0.1-2.3l0.3-2.6c0.4-3.1,1.1-6.4,2-9.6c1.9-6.4,4.4-12.7,7.5-18.7c3.1-6,6.6-11.9,10.5-17.5
		c3.9-5.6,8-11,12.5-16.1c4.4-5.1,9.2-9.9,14.2-14.1c2.5-2.1,5.1-4,7.7-5.5l2.2-1.2l2.1-1.1c1.5-0.7,3-1.4,4.5-2.1
		c6.1-2.6,12.5-4.9,18.9-6.8c6.5-1.9,13.1-3.4,19.7-4.5c6.7-1.1,13.4-1.8,20.1-1.9c6.7-0.1,13.5,0.3,20.1,1.4
		c6.6,1,13.1,2.8,19.2,5.3c2.6,1.1,5.2,2.4,7.6,3.8c-2.6,1.3-5.1,2.6-7.6,4l-1.7,0.9l-0.9,0.5l-0.8,0.5l-3.2,1.9
		c-2.1,1.4-4.4,2.8-6.5,4.3c-8.3,5.8-16.1,12.3-23.4,19.2c-8.6,8.1-16.6,16.6-24.4,25.4c-0.5-1.1-1.1-2.2-1.7-3.5
		c-2.7-5.3-6.9-12.2-11.8-18.5c-4.9-6.3-10.7-11.9-15.9-14.9c-2.6-1.5-5-2.3-6.7-2.4c-0.9-0.1-1.6,0.1-2,0.2
		c-0.4,0.1-0.7,0.2-0.7,0.2s0.2,0,0.7-0.1c0.4,0,1.1,0,1.9,0.2c1.6,0.4,3.7,1.5,5.9,3.3c4.4,3.6,8.9,9.8,12.6,16.4
		c3.7,6.6,6.4,13.6,8.1,19c0.4,1.3,0.8,2.6,1.1,3.7c0.3,1.1,0.6,2,0.8,2.8c0.3,1,0.4,1.6,0.6,2.1c-2.9,3.4-5.7,6.9-8.5,10.4
		c-12.4,15.5-23.9,31.6-35.2,47.8C154.7,229.3,146.1,242.2,137.7,255.1z M156.2,263c-0.3-0.2-1.2-3.2-1.1-2.9c0-0.8,0.1-1.8,0.3-3
		c6.7-10.8,13.6-21.5,20.5-32.1c3.3-5.1,6.7-10.1,10.1-15.1c1.5-1.4,3.1-2.8,4.8-4.1c6.3-5.1,13.3-9.7,20.7-14
		c7.4-4.3,15-8.4,22.7-12.4c7.8-4.1,15.4-7.8,23.2-11.1c7.8-3.2,15.5-6.1,23.2-7.8c7.6-1.8,15-2.7,21.6-1.8c3.3,0.4,6.3,1.2,9,2.4
		c2.6,1.2,4.7,2.9,6.4,4.8c1.6,1.9,2.7,4.1,3.2,6.2c0.2,1.1,0.4,2.1,0.3,3.1c0,0.7,0,1.5,0,2.1c-0.1,0.5-0.1,1-0.2,1.6
		c-0.6,4.5-2.2,8.6-3.7,11.8c-0.6,1.2-1.1,2.2-1.7,3.2c-1.1-0.2-2.1-0.3-3.1-0.4c-7-0.6-13.8-0.2-20.5,0.8c-6.6,1-13.1,2.6-19.4,4.4
		c-6.3,1.9-12.5,4-18.5,6.5c-6,2.4-12,5.1-17.8,8c-5.8,2.9-11.4,6.1-17,9.2c-5.6,3.2-11.1,6.5-16.6,9.8c-5.5,3.4-10.9,6.9-16.2,10.6
		c-5.3,3.7-10.5,7.6-15.5,11.8c-3.6,3.1-7.2,6.3-10.5,9.8c-0.1,0-0.2-0.1-0.3-0.1c-0.9-0.4-2.2-0.9-3.1-1.3
		c-0.5-0.2-0.8-0.4-0.9-0.3C156.1,262.7,156.3,263.1,156.2,263z M206.5,416.7L206.5,416.7C206.5,416.7,206.5,416.7,206.5,416.7z
		 M206.6,416.8l-0.1-0.1l0.3,0.3c0,0,0,0,0,0L206.6,416.8z M215.9,423.8C215.9,423.7,215.9,423.7,215.9,423.8L215.9,423.8
		c0-0.1,0.1,0.1,0.1,0.1C215.9,423.8,215.9,423.8,215.9,423.8z M282.6,417.3c0-0.3,0.1-0.5,0.1-0.6
		C282.8,416.7,282.7,417,282.6,417.3z M284.3,401.5c0,0-0.1,0.1-0.1,0.2c0,0,0-0.1,0-0.1c0-0.2,0.1-0.3,0.2-0.4
		c0.1-0.1,0,0.1,0.2-0.1C284.5,401.1,284.3,401.4,284.3,401.5z M297.1,322.3c2.2,0.1,4.3,0.3,6.3,0.6c1,0.2,2,0.2,2.9,0.5l1.3,0.3
		l1.1,0.3l0.4,0.1c0.1,0.9,0.3,2.1,0.3,3.3c0.1,3.7-0.2,7.7-0.6,11.5c-0.4,3.8-1,7.5-1.7,11s-1.5,6.8-2.4,9.7
		c-0.2,0.7-0.5,1.3-0.7,1.9l-0.3,0.7l-0.1,0.2l0,0c0,0,0,0,0,0c0,0,0,0,0,0l-0.1,0.3l-0.6,1l-0.5,0.7c-0.3,0.4-0.7,1-1.1,1.5
		c-3.4,4.3-7.1,8-10,11c-3,2.9-5.4,5.1-7,6.5c-0.8,0.7-1.4,1.2-1.8,1.4c-0.4,0.3-0.5,0.4-0.5,0.4l1.4,2.6c-0.2,0.6-0.4,1.3-0.6,2.2
		c-0.3,1.1-0.6,2.5-0.8,4.3c-0.1,0.9-0.2,1.9-0.1,3.6c0.1,0.5,0.2,1,0.4,1.7c0.1,0.4,0.2,0.7,0.5,1.2c0.2,0.4,0.4,0.7,0.7,1l0.3,0.4
		l0,0c-0.1,0.2-0.2,0.3-0.3,0.5c-0.4,0.8-0.7,1.4-0.9,2.1c-0.4,1.3-0.7,2.5-0.9,3.8c-0.2,1.3-0.3,2.5-0.2,3.9c0,0.7,0,1.4,0.1,2.1
		c0,0.4,0.1,0.8,0.2,1.2c0.1,0.5,0.1,0.8,0.4,1.7c0,0.1,0.1,0.2,0.1,0.3c-0.4,0.7-1,1.5-1.6,2.2c-1.5,1.7-3.4,3.3-5.5,4.5
		c-0.5,0.3-1,0.5-1.5,0.7l-0.8,0.3l-1.1,0.4c-1.4,0.6-2.8,1.2-4.3,1.7c-2.8,1.1-5.6,1.8-8.3,2.3c-2.5,0.3-5,0.7-7.5,1.1
		c-2.5,0.3-4,0.7-6.3,1.4c-2.2,0.7-5.2,1.2-8.6,1.2l-5.4,0c-0.4,0-0.8,0-1.2,0l-0.6,0l-0.3,0c-0.4,0-1-0.1-1.5-0.2
		c-2.3-0.5-4.7-2-6.8-3.8c-1.1-0.9-2-1.9-2.9-3c-0.6-0.6-1.1-1.4-1.6-2.1l0-0.1c0.2-1,0.4-1.8,0.7-2.6c0.5-1.7,1-3.2,1.4-5
		c0.2-0.8,0.3-1.7,0.3-2.7c0-0.5-0.1-1-0.2-1.7c0-0.3-0.1-0.7-0.3-1.2l-0.1-0.4l-0.1-0.2l-0.2-0.5c-0.1-0.3-0.3-0.7-0.4-0.9
		l-0.1-0.1c0,0-0.4-0.6-0.5-0.7c0,0,0-0.1,0-0.1l-0.2-0.2c-0.2-0.2-0.3-0.3-0.4-0.4c-0.2-0.2-0.4-0.4-0.5-0.5
		c-0.3-0.2-0.5-0.4-0.7-0.6l-0.9-0.7c-0.5-0.4-0.9-0.7-1.3-0.9c-0.7-0.6-1-1-1.2-1.1c-0.1-0.1-0.1-0.1-0.1-0.1c0,0,0,0-0.1-0.1
		c0,0,0-0.1,0-0.1c0,0,0,0,0,0c0-0.1,0-0.2,0.1-0.3c0,0,0,0,0,0l0,0c0,0,0-0.1,0-0.1c0.1-0.1,0.2-0.4,0.4-0.7
		c0.5-0.6,1.3-1.2,2.2-1.8c1.9-1.2,4.1-2.3,6.2-3.3c2.2-1,4.4-2,6.5-2.8c8.7-3.4,15.9-6.2,21-8.1c5.1-2,8-3.3,8-3.3
		s-0.8,0.1-2.3,0.2c-1.5,0.1-3.6,0.3-6.3,0.6c-2.7,0.3-6,0.7-9.8,1.2c-3.8,0.5-8,1.1-12.7,2.1c-4.7,1-9.7,1.9-15.4,4.4
		c-1.4,0.7-2.9,1.4-4.5,2.6c-0.4,0.3-0.7,0.6-1.1,0.9c-1.7-0.7-3.7-1.5-5.9-2.5c-3.6-1.7-7.4-4.1-10.9-8c-0.9-1-1.7-2.1-2.6-3.3
		c-0.8-1.2-1.7-2.5-2.4-3.7c-1.3-2.4-2.7-5.5-3.8-8.8c-2.2-6.5-4-14.2-4.4-21.8c-0.1-1.9-0.1-3.7,0.2-5.3c0.1-0.7,0.2-1.3,0.4-1.7
		c0.4-0.2,0.8-0.4,1.1-0.5l1.1-0.5l1.4-0.6c2-0.7,4-1.4,6.2-2.1c8.5-2.7,17.8-4.8,27.2-6.7c9.4-1.9,19.1-3.5,28.8-4.6l7.3-0.8
		c2.5-0.3,5-0.6,7.4-0.8c4.8-0.5,9.7-0.8,14.4-1.1C278.8,322.1,288.3,321.7,297.1,322.3z M227.1,279.6c-0.9-0.6-1.6-1.3-2.4-1.8
		c2.9,0.9,6.6,2,10.1,3.5c1.9,0.8,3.7,1.6,5.3,2.4c0.7,0.4,1.5,0.8,2.1,1.2c0.6,0.4,1.2,0.8,1.5,1.1c-0.6,1.2-1.3,2.4-1.6,3.7
		c-0.4,1.3-0.8,2.5-1.2,3.8c-0.2,1.3-0.4,2.5-0.6,3.8l0,0.1c-0.1-0.4-0.3-0.8-0.5-1.2c-0.6-1.7-1.5-3.4-2.4-5.1l-1.5-2.4
		c-0.5-0.8-1.1-1.5-1.6-2.2c-0.5-0.7-1.2-1.4-1.7-2c-0.6-0.7-1.2-1.3-1.8-1.8C229.4,281.5,228.2,280.6,227.1,279.6z M315.6,252.3
		c-0.1,4.2-2.4,9.2-5.4,13.5c-3.1,4.4-6.8,8.4-10.5,11.9c-1,1-2,1.9-2.9,2.8c-1,1-2,2-3,3c-1.8,2-3.5,3.9-5.1,5.9
		c-3,4-5.5,8-6.6,12.6c-0.3,1.3-0.5,2.6-0.5,3.9c-1.9,0-3.8,0-5.7,0c-2.5,0.1-5,0.2-7.5,0.3c-4.4,0.3-8.8,0.6-13.2,1
		c-0.1-0.3-0.3-0.7-0.4-1.1c-0.4-1.1-1-2.4-1.3-3.8c-0.1-0.7-0.3-1.4-0.5-2.2c-0.1-0.4-0.2-0.8-0.3-1.2l-0.1-1.2
		c0-0.8-0.1-1.7-0.2-2.5c0.1-0.9,0.2-1.7,0.3-2.6c0-0.9,0.3-1.8,0.5-2.7c0.2-0.9,0.4-1.9,0.9-2.8c0.4-0.9,0.7-1.9,1.2-2.8l1.6-2.8
		c1.2-1.8,2.5-3.6,4-5.3c1.4-1.7,3.1-3.2,4.6-4.8c1.6-1.4,3.2-2.9,4.8-4.2c1.6-1.3,3.1-2.5,4.5-3.5c2.8-2.2,5.3-3.9,7-5.1
		c1.5-1,2.4-1.7,2.7-1.9c-0.2,0.1-1.3,0.5-3,1.2c-1.9,0.8-4.7,2-8,3.5c-1.7,0.7-3.4,1.6-5.3,2.6c-1.9,0.9-3.8,2.1-5.8,3.2
		c-1.9,1.3-4,2.5-6,4.1c-1.3,0.9-2.4,1.9-3.6,3c-1.1-0.7-1.8-0.8-2.8-1.2c-1-0.4-2-0.6-3.1-0.9c-1.1-0.3-2.2-0.4-3.3-0.6
		c-2.2-0.3-4.5-0.5-6.8-0.6c-2.6-0.1-5.2-0.1-7.5,0c1.8-0.9,3.7-1.8,5.6-2.6c5.7-2.6,11.7-5.3,18-7.9c6.3-2.7,12.8-5.2,19.4-7.6
		c6.6-2.4,13.4-4.7,20.2-6.3c3.4-0.8,6.7-1.6,9.9-2c3.2-0.4,6.3-0.5,8.5-0.1c0.5,0.1,1,0.2,1.2,0.4c0.1,0.1,0.1,0.1,0.2,0.1l0.3,0.2
		c0.1,0.1,0.4,0.3,0.5,0.3c0,0.1,0.3,0.3,0.6,0.6c0.3,0.3,0.5,0.6,0.7,0.9C315.2,248.5,315.7,250.2,315.6,252.3z M323.6,222.7
		c-0.6,2.3-1.7,4.6-3.1,6.9c-0.3,0.5-0.7,1.1-1,1.7l-0.2-0.1c-0.7-0.4-1.4-0.6-2.2-0.9c-1.4-0.5-2.7-0.7-4-0.9
		c-5-0.6-9.2,0-13.2,0.7c-4,0.8-7.8,1.8-11.5,3c-7.3,2.4-14.3,5.3-21,8.4c-6.7,3.1-13.1,6.4-19.2,9.7c-6.1,3.3-11.9,6.7-17.3,10
		s-10.5,6.5-15.1,9.6c-9.2,6.1-16.6,11.6-21.8,15.5c-4.8,3.7-7.6,6-7.9,6.2c0.4-0.2,3.6-1.9,8.9-4.7c4.4-2.3,10.2-5.3,17.2-8.7
		l-0.1,0.2c0,0,0.6,0.5,1.6,1.4c1,0.9,2.4,2.1,4,3.7c0.8,0.8,1.6,1.6,2.4,2.5c0.8,0.9,1.6,1.9,2.4,2.9c0.4,0.5,0.8,1,1.1,1.6
		c0.3,0.5,0.7,1,1,1.6c0.3,0.6,0.6,1.1,0.9,1.7l0.7,1.7c0.4,1.2,0.8,2.3,1,3.6c0.3,1.2,0.4,2.4,0.5,3.6c0.1,1.2,0.1,2.4,0.1,3.5
		c-0.1,1.1-0.1,2.2-0.2,3.2c0,0.1,0,0.3-0.1,0.4c-10,1.7-19.9,3.7-29.5,6.3l-0.8-4.2l-1.3-6.9l-8.5,0.5c-1,0.3-2.5,0.7-3.8,1
		c-1.4,0.3-2.8,0.5-4.1,0.7c-2.8,0.3-5.6,0.4-8.2,0.2c-5.3-0.3-9.8-2.1-12.4-5.4c-0.7-0.8-1.2-1.8-1.7-2.8c-0.1-0.3-0.2-0.5-0.3-0.8
		l-0.1-0.4l-0.1-0.2l0,0l0,0.1l0-0.1l0,0c0,0,0-0.1,0-0.1l-0.2-0.9c-0.1-0.3-0.2-0.9-0.2-1c-0.1-0.9-0.3-2.1-0.2-3.3
		c0-0.6,0-1.2,0.2-1.8c0.1-0.6,0.2-1.3,0.3-1.9c1.2-5.1,4-10.3,7.7-15c3.6-4.8,7.9-9.2,12.5-13.4c4.5-4.2,9.5-8.1,14.5-11.9
		c10.1-7.5,20.7-14.4,31.6-20.8c5.5-3.2,11-6.4,16.5-9.3c5.5-2.9,11.3-5.4,17.2-7.4c5.9-2,11.9-3.6,18.1-4.6
		c6.1-1.1,12.2-1.6,18.3-1.7c6.1-0.1,12.1,0.3,17.7,1.3c2.8,0.5,5.5,1.2,7.9,2.1c2.4,0.8,4.5,2.2,5.1,2.9c0.1,0.1,0.1,0.1,0.1,0.2
		l0,0.1l0.1,0.6c0.2,0.9,0.2,1.1,0.3,1.6c0,0.6,0.1,1.1,0.2,1.7C324.5,218.2,324.2,220.4,323.6,222.7z M385.2,125.9
		c-0.6,4.5-2.1,8.9-3.9,13.2c-0.9,2.1-2,4.2-3.1,6.2l-1.9,3.2c-0.5,0.9-1.3,2-1.9,3c-2.6,4.1-5.4,8.1-8.2,12.1
		c-2.9,3.9-5.8,7.8-8.8,11.6c-3.1,3.8-6.2,7.5-9.5,11c-3.3,3.5-6.7,7-10.1,10.3c-1.5,1.5-3.2,2.9-4.9,4.2c-1.4-1.3-2.9-2.2-4.3-3
		c-1.2-0.6-2.4-1.1-3.5-1.6c0.2-0.4,0.5-0.8,0.7-1.3c1.9-3.7,3.9-8.5,4.9-14.7c0.1-0.8,0.2-1.7,0.3-2.5c0.1-0.8,0.1-1.4,0.1-2.2
		c0.1-1.8-0.1-3.8-0.4-5.6c-0.7-3.8-2.5-7.5-5-10.8c-2.6-3.2-6-6-9.7-8c-3.8-1.9-8-3.2-12.2-3.9c-4.2-0.7-8.6-0.9-12.9-0.7
		c-4.3,0.2-8.7,0.7-13,1.6c-8.6,1.7-17.2,4.4-25.6,7.7c-8.3,3.3-16.7,7.3-24.6,11.5c-7.3,3.9-14.2,8.3-20.8,13.1
		c0.8-1.1,1.6-2.2,2.4-3.3c11.7-15.5,24-30.5,37.6-44.1c6.8-6.8,14-13.1,21.6-18.7c1.9-1.4,3.7-2.6,5.7-4l3.1-1.9l0.8-0.5l0.7-0.4
		l1.6-0.9c4.2-2.4,8.4-4.7,12.7-6.8c8.6-4.3,17.5-7.9,26.6-10.4c9.1-2.5,18.5-4.1,27.6-4.2c4.6-0.1,9.1,0.2,13.3,1
		c1,0.2,2.1,0.5,2.8,0.8c1,0.4,1.7,0.6,2.7,1.1c1.8,0.9,3.6,2.1,5.2,3.4c6.8,5.3,12,12.7,13.7,21.2
		C385.8,117,385.9,121.4,385.2,125.9z"/>
	<path class="st2" d="M309.2,324l-0.4-0.1l-1.1-0.3l-1.3-0.3c-0.9-0.2-1.9-0.3-2.9-0.5c-2-0.2-4.2-0.5-6.3-0.6
		c-8.8-0.6-18.2-0.2-27.8,0.3c-4.8,0.3-9.7,0.6-14.4,1.1c-2.4,0.2-4.9,0.5-7.4,0.8l-7.3,0.8c-9.7,1.2-19.4,2.7-28.8,4.6
		c-9.4,1.9-18.6,4.1-27.2,6.7c-2.1,0.7-4.2,1.4-6.2,2.1l-1.4,0.6l-1.1,0.5c-0.3,0.1-0.7,0.3-1.1,0.5c-0.1,0.5-0.3,1-0.4,1.7
		c-0.2,1.6-0.2,3.5-0.2,5.3c0.4,7.6,2.2,15.3,4.4,21.8c1.1,3.2,2.5,6.4,3.8,8.8c0.6,1.2,1.5,2.5,2.4,3.7c0.9,1.2,1.7,2.3,2.6,3.3
		c3.5,4,7.2,6.3,10.9,8c2.2,1,4.2,1.8,5.9,2.5c0.4-0.3,0.7-0.7,1.1-0.9c1.6-1.2,3.1-2,4.5-2.6c5.7-2.5,10.7-3.4,15.4-4.4
		c4.7-0.9,8.9-1.5,12.7-2.1c3.8-0.5,7.1-0.9,9.8-1.2c2.7-0.3,4.9-0.5,6.3-0.6c1.5-0.1,2.3-0.2,2.3-0.2s-2.9,1.3-8,3.3
		c-5.1,2-12.3,4.8-21,8.1c-2.1,0.9-4.3,1.8-6.5,2.8c-2.2,1-4.4,2.1-6.2,3.3c-0.9,0.6-1.7,1.3-2.2,1.8c-0.2,0.3-0.4,0.5-0.4,0.7
		c0,0,0,0.1,0,0.1l0,0c0,0,0,0,0,0c0,0.1-0.1,0.3-0.1,0.3c0,0,0,0,0,0c0,0,0,0.1,0,0.1c0,0,0,0.1,0.1,0.1c0,0,0.1,0,0.1,0.1
		c0.1,0.1,0.5,0.5,1.2,1.1c0.3,0.3,0.7,0.6,1.3,0.9l0.9,0.7c0.2,0.2,0.4,0.3,0.7,0.6c0.1,0.1,0.3,0.2,0.5,0.5
		c0.1,0.1,0.2,0.2,0.4,0.4l0.2,0.2c0,0,0,0,0,0.1c0.1,0.2,0.5,0.7,0.5,0.7l0.1,0.1c0.1,0.2,0.3,0.6,0.4,0.9l0.2,0.5l0.1,0.2l0.1,0.4
		c0.1,0.5,0.2,0.8,0.3,1.2c0.1,0.6,0.2,1.2,0.2,1.7c0,1-0.1,1.9-0.3,2.7c-0.3,1.7-0.9,3.3-1.4,5c-0.2,0.8-0.4,1.6-0.7,2.6l0,0.1
		c0.4,0.6,1,1.4,1.6,2.1c0.9,1,1.9,2.1,2.9,3c2.1,1.8,4.6,3.3,6.8,3.8c0.5,0.1,1.1,0.2,1.5,0.2l0.3,0l0.6,0c0.4,0,0.7,0,1.2,0l5.4,0
		c3.4-0.1,6.4-0.6,8.6-1.2c2.2-0.7,3.8-1,6.3-1.4c2.6-0.4,5.1-0.7,7.5-1.1c2.7-0.4,5.6-1.2,8.3-2.3c1.4-0.6,2.9-1.2,4.3-1.7l1.1-0.4
		l0.8-0.3c0.5-0.2,1-0.4,1.5-0.7c2-1.2,4-2.8,5.5-4.5c0.7-0.7,1.2-1.5,1.6-2.2c0-0.1-0.1-0.2-0.1-0.3c-0.3-0.9-0.3-1.2-0.4-1.7
		c-0.1-0.4-0.1-0.8-0.2-1.2c-0.1-0.7-0.1-1.4-0.1-2.1c0-1.3,0.1-2.6,0.2-3.9c0.2-1.3,0.4-2.5,0.9-3.8c0.2-0.7,0.5-1.4,0.9-2.1
		c0.1-0.1,0.2-0.3,0.3-0.5l0,0l-0.3-0.4c-0.3-0.3-0.5-0.7-0.7-1c-0.3-0.5-0.4-0.8-0.5-1.2c-0.2-0.7-0.3-1.2-0.4-1.7
		c-0.2-1.7,0-2.7,0.1-3.6c0.2-1.8,0.5-3.1,0.8-4.3c0.2-0.9,0.4-1.6,0.6-2.2l-1.4-2.6c0,0,0.2-0.1,0.5-0.4c0.4-0.3,1-0.8,1.8-1.4
		c1.6-1.3,4-3.6,7-6.5c2.9-3,6.6-6.7,10-11c0.4-0.5,0.9-1.1,1.1-1.5l0.5-0.7l0.6-1l0.1-0.3c0,0,0,0,0,0c0,0,0,0,0,0l0,0l0.1-0.2
		l0.3-0.7c0.2-0.6,0.5-1.2,0.7-1.9c0.9-2.9,1.7-6.2,2.4-9.7s1.3-7.2,1.7-11c0.4-3.8,0.7-7.8,0.6-11.5
		C309.5,326.1,309.4,324.9,309.2,324z M221.7,407c-1.5-2.4-0.9-5.5,1.5-7.1c0.3-0.2,0.7-0.4,1.1-0.6c0,0,2.6-0.9,6.5-2.3
		c3.9-1.4,9.2-3,14.6-4.4c5.4-1.3,10.8-2.3,14.9-2.7c2.1-0.2,3.7-0.3,4.9-0.3c1.2,0,1.9,0,1.9,0s-0.6,0.2-1.8,0.5
		c-1.1,0.3-2.8,0.8-4.7,1.5c-3.8,1.3-8.7,3.5-13.4,6c-4.7,2.5-9.3,5.2-12.6,7.4c-3.4,2.2-5.6,3.7-5.6,3.7l0,0
		C226.5,410.1,223.3,409.4,221.7,407z M272.2,406.3c-0.3,0.1-0.7,0.1-1,0.1l-0.1,0c0,0-0.8,0-2.1,0c-0.3,0-0.7,0-1.1,0
		c-0.3,0-0.7,0-1.1,0.1c-0.8,0.1-1.7,0.1-2.8,0.2c-1.1,0.2-2.2,0.3-3.5,0.6c-1.3,0.3-2.6,0.5-4,0.8c-1.4,0.3-2.8,0.7-4.2,1.1
		c-1.4,0.4-2.9,0.8-4.4,1.3c-5.8,1.8-11.6,4-16,5.7c-4.1,1.6-6.8,2.9-7.1,3c0.7-0.5,10.4-7.6,21-13.5c1.4-0.8,2.8-1.5,4.2-2.2
		c1.4-0.7,2.8-1.4,4.1-2c1.4-0.7,2.7-1.2,4-1.8c1.3-0.5,2.6-1,3.7-1.4c1.1-0.4,2.4-0.7,3.4-1.1c0.5-0.1,1-0.3,1.5-0.4
		c0.4-0.1,0.8-0.2,1.1-0.2c1.3-0.3,2.1-0.5,2.1-0.5c2.8-0.6,5.5,1.2,6.1,3.9C276.7,403,275,405.7,272.2,406.3z"/>
	<path class="st2" d="M315.6,252.3c-0.1,4.2-2.4,9.2-5.4,13.5c-3.1,4.4-6.8,8.4-10.5,11.9c-1,1-2,1.9-2.9,2.8c-1,1-2,2-3,3
		c-1.8,2-3.5,3.9-5.1,5.9c-3,4-5.5,8-6.6,12.6c-0.3,1.3-0.5,2.6-0.5,3.9c-1.9,0-3.8,0-5.7,0c-2.5,0.1-5,0.2-7.5,0.3
		c-4.4,0.3-8.8,0.6-13.2,1c-0.1-0.3-0.3-0.7-0.4-1.1c-0.4-1.1-1-2.4-1.3-3.8c-0.1-0.7-0.3-1.4-0.5-2.2c-0.1-0.4-0.2-0.8-0.3-1.2
		l-0.1-1.2c0-0.8-0.1-1.7-0.2-2.5c0.1-0.9,0.2-1.7,0.3-2.6c0-0.9,0.3-1.8,0.5-2.7c0.2-0.9,0.4-1.9,0.9-2.8c0.4-0.9,0.7-1.9,1.2-2.8
		l1.6-2.8c1.2-1.8,2.5-3.6,4-5.3c1.4-1.7,3.1-3.2,4.6-4.8c1.6-1.4,3.2-2.9,4.8-4.2c1.6-1.3,3.1-2.5,4.5-3.5c2.8-2.2,5.3-3.9,7-5.1
		c1.5-1,2.4-1.7,2.7-1.9c-0.2,0.1-1.3,0.5-3,1.2c-1.9,0.8-4.7,2-8,3.5c-1.7,0.7-3.4,1.6-5.3,2.6c-1.9,0.9-3.8,2.1-5.8,3.2
		c-1.9,1.3-4,2.5-6,4.1c-1.3,0.9-2.4,1.9-3.6,3c-1.1-0.7-1.8-0.8-2.8-1.2c-1-0.4-2-0.6-3.1-0.9c-1.1-0.3-2.2-0.4-3.3-0.6
		c-2.2-0.3-4.5-0.5-6.8-0.6c-2.6-0.1-5.2-0.1-7.5,0c1.8-0.9,3.7-1.8,5.6-2.6c5.7-2.6,11.7-5.3,18-7.9c6.3-2.7,12.8-5.2,19.4-7.6
		c6.6-2.4,13.4-4.7,20.2-6.3c3.4-0.8,6.7-1.6,9.9-2c3.2-0.4,6.3-0.5,8.5-0.1c0.5,0.1,1,0.2,1.2,0.4c0.1,0.1,0.1,0.1,0.2,0.1l0.3,0.2
		c0.1,0.1,0.4,0.3,0.5,0.3c0,0.1,0.3,0.3,0.6,0.6c0.3,0.3,0.5,0.6,0.7,0.9C315.2,248.5,315.7,250.2,315.6,252.3z"/>
	<path class="st2" d="M324.4,216c0.1,2.2-0.1,4.4-0.8,6.7c-0.6,2.3-1.7,4.6-3.1,6.9c-0.3,0.5-0.7,1.1-1,1.7l-0.2-0.1
		c-0.7-0.4-1.4-0.6-2.2-0.9c-1.4-0.5-2.7-0.7-4-0.9c-5-0.6-9.2,0-13.2,0.7c-4,0.8-7.8,1.8-11.5,3c-7.3,2.4-14.3,5.3-21,8.4
		c-6.7,3.1-13.1,6.4-19.2,9.7c-6.1,3.3-11.9,6.7-17.3,10s-10.5,6.5-15.1,9.6c-9.2,6.1-16.6,11.6-21.8,15.5c-4.8,3.7-7.6,6-7.9,6.2
		c0.4-0.2,3.6-1.9,8.9-4.7c4.4-2.3,10.2-5.3,17.2-8.7l-0.1,0.2c0,0,0.6,0.5,1.6,1.4c1,0.9,2.4,2.1,4,3.7c0.8,0.8,1.6,1.6,2.4,2.5
		c0.8,0.9,1.6,1.9,2.4,2.9c0.4,0.5,0.8,1,1.1,1.6c0.3,0.5,0.7,1,1,1.6c0.3,0.6,0.6,1.1,0.9,1.7l0.7,1.7c0.4,1.2,0.8,2.3,1,3.6
		c0.3,1.2,0.4,2.4,0.5,3.6c0.1,1.2,0.1,2.4,0.1,3.5c-0.1,1.1-0.1,2.2-0.2,3.2c0,0.1,0,0.3-0.1,0.4c-10,1.7-19.9,3.7-29.5,6.3
		l-0.8-4.2l-1.3-6.9l-8.5,0.5c-1,0.3-2.5,0.7-3.8,1c-1.4,0.3-2.8,0.5-4.1,0.7c-2.8,0.3-5.6,0.4-8.2,0.2c-5.3-0.3-9.8-2.1-12.4-5.4
		c-0.7-0.8-1.2-1.8-1.7-2.8c-0.1-0.3-0.2-0.5-0.3-0.8l-0.1-0.4l-0.1-0.2l0,0l0,0.1l0-0.1l0,0c0,0,0-0.1,0-0.1l-0.2-0.9
		c-0.1-0.3-0.2-0.9-0.2-1c-0.1-0.9-0.3-2.1-0.2-3.3c0-0.6,0-1.2,0.2-1.8c0.1-0.6,0.2-1.3,0.3-1.9c1.2-5.1,4-10.3,7.7-15
		c3.6-4.8,7.9-9.2,12.5-13.4c4.5-4.2,9.5-8.1,14.5-11.9c10.1-7.5,20.7-14.4,31.6-20.8c5.5-3.2,11-6.4,16.5-9.3
		c5.5-2.9,11.3-5.4,17.2-7.4c5.9-2,11.9-3.6,18.1-4.6c6.1-1.1,12.2-1.6,18.3-1.7c6.1-0.1,12.1,0.3,17.7,1.3c2.8,0.5,5.5,1.2,7.9,2.1
		c2.4,0.8,4.5,2.2,5.1,2.9c0.1,0.1,0.1,0.1,0.1,0.2l0,0.1l0.1,0.6c0.2,0.9,0.2,1.1,0.3,1.6C324.2,214.8,324.4,215.4,324.4,216z"/>
	<path class="st2" d="M321.1,175.2c0,0.7,0,1.5,0,2.1c-0.1,0.5-0.1,1-0.2,1.6c-0.6,4.5-2.2,8.6-3.7,11.8c-0.6,1.2-1.1,2.2-1.7,3.2
		c-1.1-0.2-2.1-0.3-3.1-0.4c-7-0.6-13.8-0.2-20.5,0.8c-6.6,1-13.1,2.6-19.4,4.4c-6.3,1.9-12.5,4-18.5,6.5c-6,2.4-12,5.1-17.8,8
		c-5.8,2.9-11.4,6.1-17,9.2c-5.6,3.2-11.1,6.5-16.6,9.8c-5.5,3.4-10.9,6.9-16.2,10.6c-5.3,3.7-10.5,7.6-15.5,11.8
		c-3.6,3.1-7.2,6.3-10.5,9.8c-0.1,0-0.2-0.1-0.3-0.1c-0.9-0.4-2.2-0.9-3.1-1.3c-0.5-0.2-0.8-0.4-0.9-0.3c0,0,0.2,0.5,0,0.3
		c-0.3-0.2-1.2-3.2-1.1-2.9c0-0.8,0.1-1.8,0.3-3c6.7-10.8,13.6-21.5,20.5-32.1c3.3-5.1,6.7-10.1,10.1-15.1c1.5-1.4,3.1-2.8,4.8-4.1
		c6.3-5.1,13.3-9.7,20.7-14c7.4-4.3,15-8.4,22.7-12.4c7.8-4.1,15.4-7.8,23.2-11.1c7.8-3.2,15.5-6.1,23.2-7.8
		c7.6-1.8,15-2.7,21.6-1.8c3.3,0.4,6.3,1.2,9,2.4c2.6,1.2,4.7,2.9,6.4,4.8c1.6,1.9,2.7,4.1,3.2,6.2
		C321,173.1,321.1,174.1,321.1,175.2z"/>
	<path class="st2" d="M385.2,125.9c-0.6,4.5-2.1,8.9-3.9,13.2c-0.9,2.1-2,4.2-3.1,6.2l-1.9,3.2c-0.5,0.9-1.3,2-1.9,3
		c-2.6,4.1-5.4,8.1-8.2,12.1c-2.9,3.9-5.8,7.8-8.8,11.6c-3.1,3.8-6.2,7.5-9.5,11c-3.3,3.5-6.7,7-10.1,10.3c-1.5,1.5-3.2,2.9-4.9,4.2
		c-1.4-1.3-2.9-2.2-4.3-3c-1.2-0.6-2.4-1.1-3.5-1.6c0.2-0.4,0.5-0.8,0.7-1.3c1.9-3.7,3.9-8.5,4.9-14.7c0.1-0.8,0.2-1.7,0.3-2.5
		c0.1-0.8,0.1-1.4,0.1-2.2c0.1-1.8-0.1-3.8-0.4-5.6c-0.7-3.8-2.5-7.5-5-10.8c-2.6-3.2-6-6-9.7-8c-3.8-1.9-8-3.2-12.2-3.9
		c-4.2-0.7-8.6-0.9-12.9-0.7c-4.3,0.2-8.7,0.7-13,1.6c-8.6,1.7-17.2,4.4-25.6,7.7c-8.3,3.3-16.7,7.3-24.6,11.5
		c-7.3,3.9-14.2,8.3-20.8,13.1c0.8-1.1,1.6-2.2,2.4-3.3c11.7-15.5,24-30.5,37.6-44.1c6.8-6.8,14-13.1,21.6-18.7
		c1.9-1.4,3.7-2.6,5.7-4l3.1-1.9l0.8-0.5l0.7-0.4l1.6-0.9c4.2-2.4,8.4-4.7,12.7-6.8c8.6-4.3,17.5-7.9,26.6-10.4
		c9.1-2.5,18.5-4.1,27.6-4.2c4.6-0.1,9.1,0.2,13.3,1c1,0.2,2.1,0.5,2.8,0.8c1,0.4,1.7,0.6,2.7,1.1c1.8,0.9,3.6,2.1,5.2,3.4
		c6.8,5.3,12,12.7,13.7,21.2C385.8,117,385.9,121.4,385.2,125.9z"/>
	<path class="st2" d="M282.7,93.3c-2.6,1.3-5.1,2.6-7.6,4l-1.7,0.9l-0.9,0.5l-0.8,0.5l-3.2,1.9c-2.1,1.4-4.4,2.8-6.5,4.3
		c-8.3,5.8-16.1,12.3-23.4,19.2c-8.6,8.1-16.6,16.6-24.4,25.4c-0.5-1.1-1.1-2.2-1.7-3.5c-2.7-5.3-6.9-12.2-11.8-18.5
		c-4.9-6.3-10.7-11.9-15.9-14.9c-2.6-1.5-5-2.3-6.7-2.4c-0.9-0.1-1.6,0.1-2,0.2c-0.4,0.1-0.7,0.2-0.7,0.2s0.2,0,0.7-0.1
		c0.4,0,1.1,0,1.9,0.2c1.6,0.4,3.7,1.5,5.9,3.3c4.4,3.6,8.9,9.8,12.6,16.4c3.7,6.6,6.4,13.6,8.1,19c0.4,1.3,0.8,2.6,1.1,3.7
		c0.3,1.1,0.6,2,0.8,2.8c0.3,1,0.4,1.6,0.6,2.1c-2.9,3.4-5.7,6.9-8.5,10.4c-12.4,15.5-23.9,31.6-35.2,47.8
		c-8.8,12.7-17.3,25.6-25.7,38.5c-1.2-2.1-2.4-4.2-3.6-6.3c-3.3-6-6.4-12.1-9.1-18.4c-2.8-6.2-5.2-12.6-7.2-19.1
		c-1-3.2-1.9-6.5-2.6-9.8c-0.7-3.3-1.2-6.6-1.5-9.8c-0.2-1.6-0.2-3.2-0.2-4.9c0-0.8,0-1.7,0.1-2.3l0.3-2.6c0.4-3.1,1.1-6.4,2-9.6
		c1.9-6.4,4.4-12.7,7.5-18.7c3.1-6,6.6-11.9,10.5-17.5c3.9-5.6,8-11,12.5-16.1c4.4-5.1,9.2-9.9,14.2-14.1c2.5-2.1,5.1-4,7.7-5.5
		l2.2-1.2l2.1-1.1c1.5-0.7,3-1.4,4.5-2.1c6.1-2.6,12.5-4.9,18.9-6.8c6.5-1.9,13.1-3.4,19.7-4.5c6.7-1.1,13.4-1.8,20.1-1.9
		c6.7-0.1,13.5,0.3,20.1,1.4c6.6,1,13.1,2.8,19.2,5.3C277.7,90.6,280.3,91.9,282.7,93.3z"/>
</g>
<g>
</g>
<g>
</g>
<g>
</g>
<g>
</g>
<g>
</g>
<g>
</g>
</svg>
